<?xml version="1.0" encoding="utf-8"?>
<!DOCTYPE svg PUBLIC "-//W3C//DTD SVG 20010904//EN" "http://www.w3.org/TR/2001/REC-SVG-20010904/DTD/svg10.dtd">
<svg version="1.0" xmlns="http://www.w3.org/2000/svg" width="400px" height="400px" viewBox="0 0 400 400" preserveAspectRatio="xMidYMid meet">
 <g fill="#ffffff">
  <path d="M166.5 384.9 c-57.5 -4.4 -105.3 -37 -130 -88.4 -21.7 -45.1 -21.2 -94.5 1.6 -138.5 14.7 -28.4 39 -52.9 66.9 -67.4 6.7 -3.5 18.2 -8.1 30.6 -12.2 10.9 -3.6 20.4 -6.9 21 -7.2 0.8 -0.5 -3.1 -5.7 -10.8 -14.7 -17.1 -19.8 -19.5 -25.8 -13.9 -34.6 3.4 -5.4 8.7 -8.3 15.2 -8.2 8.3 0.1 12.8 3.2 40.4 27.8 11 9.8 25.9 22.9 33.1 29.1 19.2 16.4 20 19.8 8.1 31 -17.6 16.5 -62.4 56.2 -66.8 59.1 -12.7 8.6 -26.9 5.8 -31.5 -6.3 -3.1 -8 -0.2 -13.8 15.1 -30.7 5.3 -5.9 9.5 -11 9.3 -11.2 -0.7 -0.8 -14.8 3.1 -22.9 6.2 -31.1 12.1 -58.3 41.8 -69.4 75.8 -8.4 25.8 -6.6 54.8 5.2 82.1 11.6 26.9 36.1 51.4 63 62.9 31.8 13.7 70.6 12.3 102.8 -3.8 17.9 -8.9 34.3 -23.6 46.3 -41.6 9.3 -13.8 12.7 -21.7 17.8 -40.8 0.3 -1 4.7 -1.3 17.9 -1.3 l17.6 0 -0.6 3.8 c-1.2 6.8 -5.5 22.6 -8.2 29.7 -18.1 48.4 -61.1 85.5 -111.8 96.4 -8.1 1.8 -31.3 4.4 -35 3.9 -0.5 0 -5.5 -0.4 -11 -0.9z"/>
  <path d="M163.1 297.9 c-21.7 -2.8 -38.4 -14.5 -47.9 -33.5 -13.9 -27.8 -5 -60.7 21.1 -78.1 10.5 -7.1 19.6 -9.8 32.7 -9.7 9.6 0 11.5 0.4 22.4 4.1 l12 4 67.3 -59.6 c37 -32.8 69 -60.4 71 -61.3 5 -2.3 9.5 -2.2 14.2 0.2 9.4 4.8 11.5 11.8 7 23.8 -1 2.9 -1.9 5.5 -1.9 5.7 0 0.2 3.6 4.5 8 9.5 9.5 10.8 11.4 13.9 10.1 17.3 -1.1 2.9 -13.5 14.4 -17.8 16.5 -4.8 2.3 -7.7 0.5 -17.3 -10.8 -4.7 -5.5 -8.9 -10 -9.4 -10 -0.8 0 -4.4 2.9 -14 11.1 -0.5 0.4 3.2 5.2 8.1 10.6 13.7 14.9 13.9 15.9 5.7 24 -7.9 7.6 -13.2 11.3 -16.5 11.3 -3.2 0 -5.9 -2.5 -15.9 -14.3 -3.5 -4.2 -7 -7.7 -7.6 -7.7 -1.3 0 -65.2 56 -67.3 59.1 -1.2 1.7 -1.1 2.9 0.8 9.4 6.2 20.7 2.4 40.5 -10.8 56.3 -14.1 16.9 -33.4 24.8 -54 22.1z m14.2 -35 c13.8 -3.4 22.4 -19 18.4 -33 -5.7 -19.5 -30.7 -25.8 -44.9 -11.4 -5.1 5.2 -7.1 9.9 -7.6 17.8 -0.4 5.8 0 7.5 2.2 12.2 6 12.1 18.5 17.8 31.9 14.4z"/>
 </g>
</svg>