<svg version="1.0" xmlns="http://www.w3.org/2000/svg" width="662px" height="578px" viewBox="0 0 6620 5780" preserveAspectRatio="xMidYMid meet">
<g id="layer101" fill="#231815" stroke="none">
 <path d="M1188 3418 l-3 -2093 -408 -5 c-224 -3 -407 -8 -407 -12 0 -5 0 -73 0 -153 l0 -145 793 -2 792 -3 3 -372 2 -373 1245 0 1245 0 2 373 3 372 848 3 847 2 0 155 0 155 -435 0 -435 0 0 2095 0 2095 -2045 0 -2045 0 -2 -2092z m3772 -158 l0 -1930 -1725 0 -1725 0 0 1930 0 1930 1725 0 1725 0 0 -1930z m-832 -2467 l-3 -208 -922 -3 -923 -2 0 210 0 210 925 0 925 0 -2 -207z"/>
 <path d="M2250 3185 l0 -1305 210 0 210 0 0 1305 0 1305 -210 0 -210 0 0 -1305z"/>
 <path d="M3720 3185 l0 -1305 215 0 215 0 -2 1303 -3 1302 -212 3 -213 2 0 -1305z"/>
 </g>

</svg>