<?xml version="1.0" standalone="yes"?>
<svg width="276" height="260">
<path style="fill:#00a0e9; stroke:none;" d="M122 25.4282C107.824 27.4591 94.0971 32.3914 82 40.0532C70.258 47.4901 60.5232 56.7031 52.4282 68C21.6981 110.885 30.2721 174.138 71 207.535C93.9227 226.333 123.891 233.842 153 229.715C166.855 227.75 180.073 222.649 192 215.385C203.327 208.486 213.67 198.864 221.279 188C272.402 115.004 210.973 12.6819 122 25.4282z"/>
<path style="fill:#ffffff; stroke:none;" d="M128 38.4252C113.207 40.4388 99.4732 45.0355 87 53.3549C77.2911 59.8307 68.8623 68.3009 62.3588 78C20.627 140.237 73.7036 225.838 148 216.714C160.833 215.138 172.907 210.558 184 203.985C251.291 164.113 233.447 61.1389 160 41.0108C149.824 38.222 138.495 36.9966 128 38.4252z"/>
<path style="fill:#00a0e9; stroke:none;" d="M82 68L82 188L106 188L106 97L107 97L121.35 164L127.564 186.972L152 188L172 96L173 96L173 188L197 188L197 68L160 68L140 159L139 159L119 68L82 68z"/>
</svg>
