<?xml version="1.0" standalone="yes"?>
<svg width="321" height="294">
<path style="fill:#ffffff; stroke:none;" d="M0 0L0 294L321 294L321 0L0 0z"/>
<path style="fill:#00a0e9; stroke:none;" d="M74 39C74.003 66.418 83.6623 93.2107 103.039 112.985C138.207 148.875 200.082 152.449 239 120.535C251.339 110.417 260.264 98.2056 267.244 84C274.252 69.7368 276 54.6647 276 39L74 39M164 154L164 238L180 238L180 154L164 154M126 156L99.5756 199L83 228L98 236L141 164L126 156M203 164L246 236L261 228L246.8 203L218 156L203 164z"/>
</svg>
