<?xml version="1.0" standalone="yes"?>
<svg width="303" height="276">
<path style="fill:#ffffff; stroke:none;" d="M0 0L0 276L303 276L303 0L0 0z"/>
<path style="fill:#00a0e9; stroke:none;" d="M45 32L45 234L248 234L248 32L45 32z"/>
<path style="fill:#ffffff; stroke:none;" d="M59 45L59 221L234 221L234 45L59 45z"/>
<path style="fill:#00a0e9; stroke:none;" d="M142 54.4244C125.504 56.5903 110.204 60.641 97 71.4645C57.2683 104.033 58.6949 169.133 102 198.251C118.896 209.611 139.069 213.398 159 210.711C239.569 199.853 247.22 82.161 171 58.0285C162.136 55.222 151.272 53.207 142 54.4244z"/>
<path style="fill:#ffffff; stroke:none;" d="M138 68.439C128.081 69.9882 118.252 73.435 110 79.2083C56.113 116.911 88.0168 207.189 155 197.572C165.038 196.13 174.606 192.697 183 186.971C237.602 149.724 205.179 57.9467 138 68.439z"/>
<path style="fill:#00a0e9; stroke:none;" d="M113 110.529C83.0001 117.462 95.735 163.467 126 156.471C155.99 149.538 142.968 103.604 113 110.529M171 110.529C141.008 117.462 154.032 163.387 184 156.471C213.993 149.549 201.108 103.57 171 110.529z"/>
</svg>
