<svg version="1.1" xmlns="http://www.w3.org/2000/svg" fill-rule="evenodd" clip-rule="evenodd" height="1024" width="1024" viewBox="0 0 1024 1024"><path d="M389.90848 717.42464c12.60544-48.97792-22.77888-90.79808-68.41856-134.32832-89.1136-84.95104-105.71264-200.29952-53.8112-312.55552 46.0544-99.57888 161.1008-165.94944 274.91328-150.8096 100.8896 13.42976 175.61088 67.95264 215.68512 164.1472 42.96192 103.07584 41.088 203.8784-48.09728 278.8608-72.6272 61.056-80.91136 133.43744-76.20096 217.20064 2.85184 50.56512-20.9152 88.63744-68.05504 112.18432-47.488 23.7312-91.79648 16.84992-131.68128-12.96384-48.07168-35.9424-49.86368-89.68704-44.33408-161.73568z m342.60992-321.0752c-0.4096-125.11232-95.60064-225.69984-211.95776-229.05344-99.47136-2.8672-172.11904 46.47424-216.25344 146.88768-33.76128 76.8256-13.568 169.24672 51.46624 234.368 38.39488 38.46656 77.7728 72.576 86.72256 134.25664 6.15936 42.54208 54.36416 22.08256 84.31616 24.43776 23.57248 1.88928 56.00256 3.00544 56.34048-31.34464 0.62464-60.6464 41.856-94.91456 78.68416-131.09248 43.77088-43.02336 77.824-88.17664 70.6816-148.45952z" fill="#00a0e9"path></svg>