<svg width="300" height="275" xmlns="http://www.w3.org/2000/svg"><path stroke="null" id="svg_1" d="m286.459534,132.102561l-43.897724,-16.261398l3.719057,-11.692515c1.125504,-3.514018 -0.611687,-7.351088 -3.875038,-8.550997l-189.170349,-70.09246c-3.260292,-1.199909 -6.823369,0.672476 -7.933582,4.189791l-30.492601,95.564145c-1.110212,3.514018 0.626979,7.347792 3.887271,8.560886l57.29673,21.219262l17.53401,6.507196l0.174331,0.069225l0,38.680568l-64.594156,0c-3.449915,0 -6.248384,3.022847 -6.248384,6.728059l0,5.627044c0,3.715101 2.798468,6.734652 6.248384,6.734652l69.6314,0c6.896772,0 12.496767,-6.0391 12.496767,-13.469303l0,-37.810305l9.037677,3.336009l0,57.486827l-91.165844,0c-3.449915,0 -6.248384,3.01955 -6.248384,6.737948l0,5.613858c0,3.721694 2.798468,6.734652 6.248384,6.734652l96.374359,0c6.893713,0 12.493709,-6.032507 12.493709,-13.466007l0,-56.547338l69.891367,25.896927c3.260292,1.196612 6.823369,-0.66918 7.951932,-4.189791l3.722116,-11.692515l23.201291,8.59385c3.257234,1.209798 7.551277,-0.237345 9.594312,-3.243709l7.227083,-10.683801l21.880047,-32.268969l7.236258,-10.677208c2.043035,-3.006364 1.039868,-6.424785 -2.220424,-7.634583zm-83.678794,49.723683l-167.4891,-62.035931l23.033077,-72.225264l167.492158,62.05571l-23.036136,72.205486zm39.270311,-5.627044l-16.763285,-6.210516l11.530302,-36.109336l27.097738,10.047586l-21.864755,32.272266z" fill="#00a0e9"/></svg>