<?xml version="1.0" standalone="yes"?>
<svg width="307" height="293">
<path style="fill:#00a0e9; stroke:none;" d="M39 35L39 253L257 253L257 35L39 35z"/>
<path style="fill:#ffffff; stroke:none;" d="M52 48L52 240C60.7876 237.533 67.148 226.534 73.0748 220C88.6485 202.83 103.999 185.427 119.285 168C123.856 162.788 137.606 152.22 137.836 145C138.061 137.956 123.441 126.059 118.95 121C103.637 103.751 88.4187 86.4044 73.2816 69C67.5795 62.4438 60.5747 50.4576 52 48M244 240L244 48C234.839 52.3624 227.184 64.3859 220.576 72C206.211 88.5506 191.197 104.551 176.715 121C172.143 126.193 157.119 137.743 157.203 145C157.281 151.74 171.776 163.135 176.17 168C191.25 184.696 206.822 201.015 221.576 218C227.396 224.701 235.396 237.236 244 240M74 49L147 133L148 133L198.169 77L222 49L74 49M147 157L100.715 209L74 240L223 240L179.169 191L147 157z"/>
</svg>
