<?xml version="1.0" standalone="yes"?>
<svg width="317" height="285">
<path style="fill:#00a0e9; stroke:none;" d="M40 34L40 235L241 235L241 34L40 34z"/>
<path style="fill:#ffffff; stroke:none;" d="M54 48L54 221L227 221L227 48L54 48z"/>
<path style="fill:#00a0e9; stroke:none;" d="M88 160C88 193.086 114.829 204.047 144 204C164.074 203.968 185.961 194.515 190.547 173C191.525 168.412 192.282 163.685 191.714 159C188.248 130.417 161.077 127.671 138 121.873C129.236 119.672 108.402 114.325 116.742 101.004C124.225 89.0519 144.845 88.7802 154.906 97.3904C158.605 100.556 159.491 108.431 163.43 110.397C169.362 113.357 181.402 111 188 111C187.169 100.471 184.625 89.8221 176.907 82.0934C155.951 61.1082 106.862 61.8866 93.3241 91C90.7801 96.4706 90.0092 102.031 90 108C89.9915 113.52 90.1498 118.754 92.0941 124C99.3255 143.511 124.641 145.307 142 149.627C149.561 151.508 158.707 153.102 163.432 160.015C167.997 166.694 163.04 174.21 156.999 177.772C148.276 182.917 132.697 182.645 124.001 177.633C116.843 173.509 117.731 165.073 112.411 161.028C107.683 157.432 93.821 160 88 160z"/>
</svg>
