<?xml version="1.0" standalone="yes"?>
<svg width="354" height="266">
<path style="fill:#ffffff; stroke:none;" d="M0 0L0 266L354 266L354 0L0 0z"/>
<path style="fill:#00a0e9; stroke:none;" d="M99 38L99 80C86.5597 80 69.6741 76.9958 60.2137 87.1049C50.4711 97.5157 54 116.98 54 130L54 239L159 239L159 129C159 115.9 162.656 96.5131 152.787 86.108C144.307 77.1678 128.099 80 117 80L117 56L237 56L214 117L267 117C259.292 90.035 241 66.6484 241 38L99 38M287 201L264 201C259.235 217.541 240.246 225.354 227.185 211.895C211.057 195.275 217.039 151.806 245 153.041C257.527 153.594 257.314 163.373 265.498 168.972C270.166 172.166 281.479 170 287 170C286.333 138.684 248.084 127.569 223 137.465C207.235 143.683 197.808 159.627 196.171 176C194.25 195.207 197.349 215.749 213 228.671C240.211 251.138 280.342 233.172 287 201z"/>
</svg>
