<svg version="1.1" xmlns="http://www.w3.org/2000/svg" fill-rule="evenodd" clip-rule="evenodd" height="1024" width="1024" viewBox="0 0 1024 1024"><path d="M353.730347 145.438417c31.592532 0 57.933457 4.900613 64.549132 6.242168l476.647841 238.32392-131.459031 153.36904-186.885388-23.361057-362.597295-241.73153c-3.555989-40.46869 4.448312-71.977311 23.827685-93.723591C266.623453 152.224983 316.751131 145.438417 353.730347 145.438417M353.730347 131.11213c-70.862931 0-168.56923 23.287379-153.311735 155.342997l371.031385 247.353574 197.882859 24.735357 148.412145-173.147502-494.708172-247.354598C423.036829 138.04196 392.366296 131.11213 353.730347 131.11213L353.730347 131.11213z" fill="#00a0e9"></path><path d="M588.682473 521.599635 576.466244 520.000208 573.173245 517.79396 712.86989 351.155708 859.219049 372.185674 894.926296 390.004505 893.840568 391.372665 718.730365 366.465392Z" fill="#00a0e9"></path><path d="M425.200098 438.080453l101.081163 66.741054 29.235858 116.943432L199.219297 816.109206l-7.466042 4.072759 0 8.504698 0 18.948561-71.171969 0 0-270.821055 71.171969 0 0 85.498256 0 19.8767 18.856463-6.285147 199.649086-66.549695 9.463536-3.154853 0.325411-9.970072L425.200098 438.080453M411.715993 412.009681l-5.987365 183.752024-199.649086 66.549695 0-99.824543-99.824543 0 0 299.473629 99.824543 0 0-33.274848 366.023324-199.649086-33.274848-133.099391L411.715993 412.009681 411.715993 412.009681z" fill="#00a0e9"></path><path d="M734.37774 426.582585l48.828079 7.934716-32.477692 38.027082-51.475372-5.28947L734.37774 426.582585M728.771045 411.157267l-58.328453 67.538209 86.298482 8.868995 53.894468-63.104223L728.771045 411.157267 728.771045 411.157267z" fill="#00a0e9"></path></svg>