<?xml version="1.0" standalone="yes"?>
<svg width="297" height="293">
<path style="fill:#ffffff; stroke:none;" d="M0 0L0 293L297 293L297 0L0 0z"/>
<path style="fill:#00a0e9; stroke:none;" d="M43 49L43 249L244 249L244 49L43 49z"/>
<path style="fill:#ffffff; stroke:none;" d="M58 63L58 235L230 235L230 63L58 63z"/>
<path style="fill:#00a0e9; stroke:none;" d="M202 145L147 145L147 167L176 167C176 171.362 177.205 177.907 174.972 181.815C167.484 194.922 141.015 195.572 130 188.15C103.604 170.364 104.936 109.895 143 107.09C152.145 106.416 161.255 108.214 167.815 115.093C170.477 117.885 172.574 124.994 176.275 126.226C182.471 128.289 194.634 123.235 201 122C189.375 81.0345 136.246 70.8866 105.015 98.3002C87.7467 113.457 83.9997 139.289 86.1705 161C90.5958 205.259 134.266 225.408 174 212.329C182.433 209.554 193.727 205.773 199.682 198.815C203.205 194.698 202 188.038 202 183L202 145z"/>
</svg>
