<svg version="1.1" xmlns="http://www.w3.org/2000/svg" fill-rule="evenodd" clip-rule="evenodd" height="1024" width="1024" viewBox="0 0 1024 1024"><path d="M342.4256 202.24A16.0256 16.0256 0 1 0 358.4 218.2656a16.0256 16.0256 0 0 0-15.9744-15.9744zM342.4256 282.2656A16.0256 16.0256 0 1 0 358.4 298.24a16.0256 16.0256 0 0 0-15.9744-15.9744zM342.4256 362.24A16.0256 16.0256 0 1 0 358.4 378.2656a15.9744 15.9744 0 0 0-15.9744-15.9744zM422.4 362.24a16.0256 16.0256 0 1 0 16.0256 16.0256 15.9744 15.9744 0 0 0-15.9744-15.9744zM502.4256 202.24a16.0256 16.0256 0 1 0 16.0256 16.0256 16.0256 16.0256 0 0 0-15.9744-15.9744zM502.4256 362.24a16.0256 16.0256 0 1 0 16.0256 16.0256 15.9744 15.9744 0 0 0-15.9744-15.9744zM422.4 202.24a16.0256 16.0256 0 1 0 16.0256 16.0256 16.0256 16.0256 0 0 0-16.0256-16.0256zM422.4 282.2656a16.0256 16.0256 0 1 0 16.0256 16.0256 16.0256 16.0256 0 0 0-15.9744-15.9744zM502.4256 282.2656a16.0256 16.0256 0 1 0 16.0256 16.0256 16.0256 16.0256 0 0 0-15.9744-15.9744z" fill="#00a0e9"></path><path d="M600.832 942.08h-354.304A62.2592 62.2592 0 0 1 184.32 879.872V115.968A62.2592 62.2592 0 0 1 246.528 53.76h354.3552a62.2592 62.2592 0 0 1 62.1568 62.208v404.992a15.36 15.36 0 0 1-30.72 0v-404.992a31.488 31.488 0 0 0-31.488-31.488h-354.304A31.488 31.488 0 0 0 215.04 115.968v763.904a31.488 31.488 0 0 0 31.488 31.488h354.3552a31.488 31.488 0 0 0 31.488-31.488v-67.072a15.36 15.36 0 0 1 30.72 0v67.072A62.2592 62.2592 0 0 1 600.832 942.08z" fill="#00a0e9"></path><path d="M538.7776 460.8H306.0224A57.8048 57.8048 0 0 1 248.32 403.0976v-220.16A57.8048 57.8048 0 0 1 306.0224 125.44h232.7552a57.8048 57.8048 0 0 1 57.7024 57.7024v220.16A57.8048 57.8048 0 0 1 538.7776 460.8zM306.0224 156.16a27.0336 27.0336 0 0 0-26.9824 26.9824v220.16A27.0336 27.0336 0 0 0 306.0224 430.08h232.7552a27.0336 27.0336 0 0 0 26.9824-26.9824v-220.16a27.0336 27.0336 0 0 0-26.9824-26.9824zM867.2256 742.4H446.72a70.4 70.4 0 0 1 0-140.8h420.5056a70.4 70.4 0 1 1 0 140.8z m-420.5056-110.08a39.68 39.68 0 0 0 0 79.36h420.5056a39.68 39.68 0 1 0 0-79.36z" fill="#00a0e9"></path><path d="M436.6848 840.0896a170.4448 170.4448 0 1 1 129.2288-281.6A15.36 15.36 0 1 1 542.72 578.56a139.7248 139.7248 0 1 0-24.7808 204.8 15.36 15.36 0 1 1 17.8688 24.9856 169.3184 169.3184 0 0 1-99.1232 31.744z" fill="#00a0e9"></path></svg>