<svg width="300" height="275" xmlns="http://www.w3.org/2000/svg" clip-rule="evenodd"><path stroke="null" id="svg_2" d="m210.487361,261.423614l-133.233613,0a23.412149,17.337186 0 0 1 -23.392896,-17.322928l0,-212.72271a23.412149,17.337186 0 0 1 23.392896,-17.322928l133.252866,0a23.412149,17.337186 0 0 1 23.373643,17.322928l0,112.777254a5.776024,4.277266 0 0 1 -11.552047,0l0,-112.777254a11.840849,8.768396 0 0 0 -11.840849,-8.768396l-133.233613,0a11.840849,8.768396 0 0 0 -11.840849,8.768396l0,212.72271a11.840849,8.768396 0 0 0 11.840849,8.768396l133.252866,0a11.840849,8.768396 0 0 0 11.840849,-8.768396l0,-18.677396a5.776024,4.277266 0 0 1 11.552047,0l0,18.677396a23.412149,17.337186 0 0 1 -23.412149,17.322928z" fill="#00a0e9"/><path stroke="null" id="svg_3" d="m178.082998,130.090117l-60.379206,0a14.995188,15.466813 0 0 1 -14.968624,-15.439414l0,-58.908145a14.995188,15.466813 0 0 1 14.968624,-15.384616l60.379206,0a14.995188,15.466813 0 0 1 14.968624,15.439414l0,58.908145a14.995188,15.466813 0 0 1 -14.968624,15.384616zm-60.379206,-81.512433a7.012807,7.233372 0 0 0 -6.999525,7.219673l0,58.908145a7.012807,7.233372 0 0 0 6.999525,7.164874l60.379206,0a7.012807,7.233372 0 0 0 6.999525,-7.219673l0,-58.908145a7.012807,7.233372 0 0 0 -6.999525,-7.219673l-60.379206,0.054798zm145.582155,156.860061l-109.083682,0a18.262518,18.836907 0 0 1 0,-37.673814l109.083682,0a18.262518,18.836907 0 1 1 0,37.673814zm-109.083682,-29.454073a10.293419,10.617166 0 0 0 0,21.234331l109.083682,0a10.293419,10.617166 0 1 0 0,-21.234331l-109.083682,0z" fill="#00a0e9"/><path stroke="null" id="svg_4" d="m127.743384,221.827075a41.108842,38.095129 0 1 1 31.168134,-62.938783a3.704612,3.433025 0 1 1 -5.593964,4.485819a33.699619,31.22908 0 1 0 -5.976774,45.77366a3.704612,3.433025 0 1 1 4.309698,5.584387a40.837171,37.843374 0 0 1 -23.907095,7.094917z" fill="#00a0e9"/></svg>