<svg width="300" height="275" xmlns="http://www.w3.org/2000/svg" clip-rule="evenodd"><path stroke="null" id="svg_1" d="m32.176964,76.215002l237.935692,0c5.235749,0 9.307998,4.880468 9.307998,10.303211l0,98.151639c0,5.965017 -4.072249,10.303211 -8.726248,10.303211l-238.517442,0c-4.653999,0.542274 -8.726248,-4.338194 -8.726248,-9.760937l0,-98.693913c0,-5.422743 4.072249,-10.303211 8.726248,-10.303211zm2.908749,14.09913l0,13.014582l232.699944,0l0,-13.014582c0,-1.626823 -1.1635,-3.253646 -2.908749,-3.253646l-226.882445,0c-1.74525,0 -2.908749,1.626823 -2.908749,3.253646zm1.74525,18.437324l-1.74525,0l0,10.845485l232.699944,0l0,-10.845485l-230.954694,0zm0,16.268228l-1.74525,0l0,56.396522c0,1.626823 1.1635,3.253646 2.908749,3.253646l8.726248,0l0,-11.930033c0,-5.422743 4.072249,-9.760936 8.726248,-9.760936l191.395704,0c5.235749,0 8.726248,4.338194 8.726248,9.760936l0,11.930033l8.726248,0c1.74525,0 2.908749,-1.626823 2.908749,-3.253646l0,-56.396522l-230.372944,0zm18.615996,52.058328l0,7.591839l191.977453,0l0,-7.591839c0,-1.626823 -1.1635,-3.253646 -2.908749,-3.253646l-186.159955,0c-1.74525,0 -2.908749,1.626823 -2.908749,3.253646zm0,15.183679l1.1635,0l-1.1635,0z" fill="#00a0e9"/></svg>