<?xml version="1.0" standalone="yes"?>
<svg width="361" height="278">
<path style="fill:#ffffff; stroke:none;" d="M0 0L0 278L361 278L361 0L0 0z"/>
<path style="fill:#00a0e9; stroke:none;" d="M49 47L49 229L320 229L320 47L49 47z"/>
<path style="fill:#ffffff; stroke:none;" d="M62 61L62 216L306 216L306 61L62 61z"/>
<path style="fill:#00a0e9; stroke:none;" d="M104 72.5177C63.9414 81.0771 80.1172 142.763 120 133.985C160.507 125.069 144.241 63.9195 104 72.5177M177 72.5177C137.102 81.0427 152.378 142.619 192 134.181C232.745 125.504 217.695 63.8225 177 72.5177M249 72.5293C210.251 81.4243 225.292 142.589 264 134.331C305.615 125.453 290.339 63.0398 249 72.5293M104 143.518C64.5496 151.947 79.6521 213.561 119 205.181C160.115 196.425 145.003 134.757 104 143.518M177 143.468C138.296 150.77 151.304 212.51 190 205.535C232.239 197.923 219.058 135.533 177 143.468M249 143.529C210.22 152.431 225.296 213.588 264 205.331C305.601 196.456 290.38 134.03 249 143.529z"/>
</svg>
