<svg height="1024" width="1024" xmlns="http://www.w3.org/2000/svg" data-name="Layer 1" viewBox="0 0 32 32"><path d="M26.86,21.31H5.14A2.14,2.14,0,0,1,3,19.17V12.83a2.14,2.14,0,0,1,2.14-2.14H26.86A2.14,2.14,0,0,1,29,12.83v6.34A2.14,2.14,0,0,1,26.86,21.31ZM5.14,11.69A1.14,1.14,0,0,0,4,12.83v6.34a1.14,1.14,0,0,0,1.14,1.14H26.86A1.14,1.14,0,0,0,28,19.17V12.83a1.14,1.14,0,0,0-1.14-1.14Z" fill="#00a0e9"></path><path d="M25.88,21.31H6.13V17.39H25.88Zm-18.75-1H24.88V18.39H7.13Z" fill="#00a0e9"></path><rect x="7.38" y="12.62" width="17.25" height="1" fill="#00a0e9"></rect><rect x="7.38" y="14.64" width="17.25" height="1" fill="#00a0e9"></rect></svg>