<svg width="415" height="280"><path style="fill:#ffffff; stroke:none;" d="M0 0L0 280L415 280L415 0L0 0z"/><path style="fill:#00a0e9; stroke:none;" d="M178 86C168.601 87.6765 159.495 94.7453 152 100.375C124.234 121.232 112.106 147.146 108.83 181C107.782 191.829 104.643 213.067 113.394 221.581C121.927 229.883 148.771 225 160 225L263 225C276.082 225 295.759 228.67 307.999 223.852C324.711 217.274 309.396 195.81 304.219 186C290.362 159.739 269.614 113.265 308 95L308 94C283.571 94.2023 261.012 105.988 258.05 132C256.68 144.034 258.492 155.054 258.54 167C258.555 170.581 257.042 175.089 252.981 175.728C236.968 178.249 230.104 146.671 228.25 136C221.205 95.4493 239.508 58.0857 272 34C262.517 30.1322 244.544 39.0064 236 43.2477C207.804 57.2444 186.394 82.239 186.004 115C185.861 126.983 185.881 139.1 187.285 151C188.244 159.124 189.673 170.165 183.606 176.786C170.68 190.892 154.365 174.084 154.015 160C153.298 131.2 164.203 110.22 178 86z"/></svg>