<svg width="300" height="275" xmlns="http://www.w3.org/2000/svg"><path stroke="null" id="svg_1" d="m283.508503,49.384578c-5.027808,-1.588739 -10.055616,3.495225 -11.45223,9.214684l-2.513904,10.803422c-5.027808,0.953243 -8.37968,3.177477 -11.172907,5.401711c-3.910517,2.541982 -6.703744,4.448468 -13.407488,4.448468c-6.703744,0 -9.496971,-1.906486 -13.407488,-4.448468c-4.18984,-2.859729 -8.938326,-6.037207 -18.155974,-6.037207c-9.217648,0 -13.966134,3.177477 -18.155974,6.037207c-3.910517,2.541982 -6.703744,4.448468 -13.407488,4.448468c-6.703744,0 -9.496971,-1.906486 -13.407488,-4.448468c-4.18984,-2.859729 -8.938326,-6.037207 -18.155974,-6.037207c-9.217648,0 -13.966134,3.177477 -18.155974,6.037207c-3.910517,2.541982 -6.703744,4.448468 -13.407488,4.448468c-6.703744,0 -9.496971,-1.906486 -13.407488,-4.448468c-4.18984,-2.859729 -8.938326,-6.037207 -18.155974,-6.037207s-13.966134,3.177477 -18.155974,6.037207c-3.910517,2.541982 -6.703744,4.448468 -13.407488,4.448468c-6.703744,0 -9.496971,-1.906486 -13.407488,-4.448468c-3.072549,-1.906486 -6.424421,-4.13072 -11.172907,-5.401711l-2.513904,-10.485675c-1.396613,-5.719459 -6.424421,-12.074413 -11.45223,-10.485675c-5.027808,1.588739 -7.821035,7.943693 -6.703744,13.345404l37.149915,159.827099c1.117291,4.766216 4.748485,9.850179 8.938326,9.850179l186.308222,0c4.18984,0 7.821035,-5.083963 8.938326,-9.532431l37.149915,-160.462595c2.793227,-5.401711 -0.279323,-10.485675 -5.307131,-12.074413zm-46.646886,163.322324l-172.062766,0l-30.166849,-131.229805c1.396613,0.635495 2.513904,1.588739 3.910517,2.224234c4.18984,2.859729 8.938326,6.037207 18.155974,6.037207c9.217648,0 13.966134,-3.177477 18.155974,-6.037207c3.910517,-2.541982 6.703744,-4.448468 13.407488,-4.448468s9.496971,1.906486 13.407488,4.448468c4.18984,2.859729 8.938326,6.037207 18.155974,6.037207c9.217648,0 13.966134,-3.177477 18.155974,-6.037207c3.910517,-2.541982 6.703744,-4.448468 13.407488,-4.448468c6.703744,0 9.496971,1.906486 13.407488,4.448468c4.18984,2.859729 8.938326,6.037207 18.155974,6.037207s13.966134,-3.177477 18.155974,-6.037207c3.910517,-2.541982 6.703744,-4.448468 13.407488,-4.448468c6.703744,0 9.496971,1.906486 13.407488,4.448468c4.18984,2.859729 8.938326,6.037207 18.155974,6.037207c9.217648,0 13.966134,-3.177477 18.155974,-6.037207c1.396613,-0.953243 2.513904,-1.588739 3.631195,-2.224234l-31.004817,131.229805z" fill="#00a0e9"/></svg>