<?xml version="1.0" standalone="yes"?>
<svg width="283" height="275">
<path style="fill:#00a0e9; stroke:none;" d="M127 38.4282C111.783 40.6072 96.9752 45.4985 84 53.8642C72.4483 61.3121 62.8296 70.6983 55.0255 82C20.3277 132.249 37.791 204.167 92 232.68C112.058 243.23 135.766 246.145 158 242.704C171.82 240.565 185.423 235.092 197 227.329C270.074 178.332 251.365 59.0292 163 40.2106C151.505 37.7626 138.697 36.7532 127 38.4282z"/>
<path style="fill:#ffffff; stroke:none;" d="M134 51.4244C113.586 54.1376 95.7522 60.5621 80 74.2894C72.1956 81.0905 65.6238 89.8633 60.7816 99C27.0841 162.585 81.4288 238.494 152 229.714C195.707 224.276 230.856 184.29 229.985 140C229.034 91.6919 184.45 44.7191 134 51.4244z"/>
<path style="fill:#00a0e9; stroke:none;" d="M104 81L104 210L131 210L131 164C148.505 164 169.419 167.266 184.996 157.532C205.715 144.585 203.916 102.201 185 88.6373C164.773 74.1334 127.559 81 104 81z"/>
<path style="fill:#ffffff; stroke:none;" d="M131 105L131 141C140.913 141 156.163 143.866 164.907 138.467C175.188 132.118 174.838 112.186 163.996 106.688C155.266 102.262 140.6 105 131 105z"/>
</svg>
