<?xml version="1.0" standalone="yes"?>
<svg width="337" height="251">
<path style="fill:#ffffff; stroke:none;" d="M0 0L0 251L337 251L337 0L0 0z"/>
<path style="fill:#00a0e9; stroke:none;" d="M36 34L36 211L294 211L294 34L36 34z"/>
<path style="fill:#ffffff; stroke:none;" d="M49 47L49 198L280 198L280 47L49 47z"/>
<path style="fill:#00a0e9; stroke:none;" d="M104 81.4645C51.4403 90.9409 67.743 172.789 120 163.384C173.885 153.686 157.823 71.7603 104 81.4645M212 81.4645C159.104 91.0016 175.316 172.883 228 163.384C281.626 153.716 265.434 71.8306 212 81.4645z"/>
</svg>
