<?xml version="1.0" standalone="yes"?>
<svg width="367" height="279">
<path style="fill:#ffffff; stroke:none;" d="M0 0L0 279L367 279L367 0L0 0z"/>
<path style="fill:#00a0e9; stroke:none;" d="M84 42C103.777 66.5271 133.638 85.8848 157 107.075C162.202 111.793 175.751 128.345 183 127.883C190.81 127.386 203.234 111.921 209 106.845C225.613 92.2207 242.387 77.779 259 63.1551C266.598 56.4671 275.992 50.163 282 42L84 42M83 130L83 148L282 148L282 130L83 130M176 159L176 242L192 242L192 159L176 159M153 169C149.61 166.757 142.536 160.503 138.21 162.242C133.762 164.029 130.213 173.079 127.811 177C120.066 189.642 112.583 202.456 104.681 215C102.219 218.909 95.892 226.09 96.2523 230.907C96.5554 234.958 105.963 240.617 109.674 238.864C115.668 236.033 120.281 223.504 123.601 218C127.634 211.314 131.732 204.659 135.811 198C141.633 188.497 148.277 179.103 153 169M215 169C219.347 179.076 226.224 188.692 232.05 198C236.19 204.614 240.154 211.33 244.203 218C247.435 223.324 252.436 236.212 258.21 238.864C261.875 240.548 271.442 234.925 271.748 230.896C272.122 225.961 265.645 219.022 263.203 215C255.302 201.985 247.443 188.942 239.424 176C237.051 172.169 234.13 164.041 229.79 162.161C225.539 160.32 218.362 166.776 215 169z"/>
</svg>
