<?xml version="1.0" standalone="yes"?>
<svg width="329" height="252">
<path style="fill:#ffffff; stroke:none;" d="M0 0L0 252L329 252L329 0L0 0z"/>
<path style="fill:#00a0e9; stroke:none;" d="M121 33.4252C105.909 35.4794 91.9185 39.8304 79 48.054C68.4413 54.7754 59.0987 63.6552 52.0285 74C4.59555 143.402 63.6808 235.807 146 224.718C159.027 222.963 171.896 218.365 183 211.305C252.795 166.929 236.604 53.9092 154 35.4252C143.388 33.0507 131.824 31.9518 121 33.4252z"/>
<path style="fill:#ffffff; stroke:none;" d="M129 46.439C107.507 48.7359 87.6941 55.0855 72.1698 71.0895C19.2521 125.642 64.3874 219.147 140 211.83C177.586 208.193 210.044 176.858 213.829 139C218.488 92.4131 179.248 41.0691 129 46.439z"/>
<path style="fill:#00a0e9; stroke:none;" d="M121 61.439C111.031 62.996 101.434 66.5363 93 72.0787C34.2561 110.682 69.8699 207.619 140 197.572C150.353 196.089 160.197 192.852 169 187.135C229.496 147.843 192.432 50.2825 121 61.439z"/>
<path style="fill:#ffffff; stroke:none;" d="M127 74.4252C116.806 75.8089 107.443 78.6689 99 84.7855C52.8429 118.225 84.6234 191.612 140 183.7C147.697 182.6 155.559 179.58 162 175.251C206.326 145.461 183.127 66.8067 127 74.4252z"/>
<path style="fill:#00a0e9; stroke:none;" d="M239 140L239 218L255 218L255 185L286 185L286 171L255 171L255 154L290 154L290 140L239 140z"/>
</svg>
