<?xml version="1.0" standalone="yes"?>
<svg width="541" height="253">
<path style="fill:#00a0e9; stroke:none;" d="M47 38L47 214L309 214L309 38L47 38z"/>
<path style="fill:#ffffff; stroke:none;" d="M57 49L57 201C77.0409 193.663 95.9141 176.749 114 165.424C153.899 140.441 193.424 114.799 233 89.3079C253.121 76.3483 273.382 60.2267 295 50L273 49L225 49L57 49z"/>
<path style="fill:#00a0e9; stroke:none;" d="M369 128L369 137L334 137L334 158L343 158L343 146L404 146L404 158L413 158L413 137L379 137L381 129L369 128M446 128L437.68 153L424 174C438.331 184.404 440.24 162.992 448.637 155.603C451.643 152.959 457.289 154 461 154L456 174L447 167L446 167L440 175C442.915 177.161 448.657 180.205 449.458 184.039C451.423 193.441 430.765 202.696 424 205L430 215C451.654 205.982 462.453 188.79 468.709 167C469.93 162.748 475.616 152.161 473.2 148.444C468.987 141.961 457.571 145 451 145L457 133L457 131L446 128M480 129L480 216L490 216L490 171L502 183L503 183L510 176L510 175C504.429 169.429 494.815 163.681 491.028 156.83C487.385 150.242 489.894 136.751 492 130L480 129M346 153L346 161L364 161C356.437 169.657 352.567 173 341 173L344 184L369 181L369 189L343 189L343 197L369 197L369 205L332 205L332 213L415 213L415 205L379 205L379 197L404 197L404 189L379 189L379 180C383.45 179.963 388.663 178.283 392.996 179.322C401.044 181.25 400.357 185.71 409 181C405.277 171.39 394.056 159.132 384 166L387 171L367 172L377.039 162.028L402 161L402 153L346 153z"/>
</svg>
