<svg width="300" height="300" xmlns="http://www.w3.org/2000/svg"><path stroke="null" id="svg_2" d="m49.423009,149.873341c18.531693,21.837146 37.68812,44.416043 37.68812,81.071253l0,39.473863c0,1.682715 1.045346,3.293374 2.876247,4.425074l37.663378,23.223161c1.589668,0.98335 3.661803,1.525888 5.808164,1.525888l37.675749,0c2.140176,0 4.218496,-0.542538 5.801979,-1.525888l37.663378,-23.223161c1.830902,-1.1317 2.876247,-2.73812 2.876247,-4.425074l0,-39.473863c0,-36.650971 19.162612,-59.234107 37.68812,-81.071253c15.482253,-18.25131 30.110909,-35.489601 30.110909,-58.305858c0,-50.244086 -59.65894,-91.125156 -132.981601,-91.125156s-132.975416,40.88107 -132.975416,91.125156c0,22.816257 14.622471,40.054548 30.104724,58.305858zm118.377686,137.817315l-31.013989,0l-20.084248,-12.389359l71.182486,0l-20.084248,12.389359zm32.300568,-22.163517l-95.621311,0l0,-9.964893l95.627497,0l0,9.964893l-0.006185,0zm0,-19.739051l-95.621311,0l0,-9.956416l95.627497,0l0,9.956416l-0.006185,0zm-47.807563,-233.44384c63.753726,0 115.606592,35.540464 115.606592,79.218995c0,19.607655 -12.85961,34.773282 -27.754242,52.325227c-17.975,21.192883 -38.213886,45.132363 -39.871594,82.164806l-95.961513,0c-1.670079,-37.028204 -21.896594,-60.971923 -39.87778,-82.164806c-14.894632,-17.551945 -27.754242,-32.717572 -27.754242,-52.325227c0,-43.678531 51.865237,-79.218995 115.612778,-79.218995z" fill="#00a0e9"/></svg>