<svg version="1.1" xmlns="http://www.w3.org/2000/svg" fill-rule="evenodd" clip-rule="evenodd" height="1024" width="1024" viewBox="0 0 1024 1024"><path d="M128 64h768a64 64 0 0 1 64 64v768a64 64 0 0 1-64 64H128a64 64 0 0 1-64-64V128a64 64 0 0 1 64-64z m32 64a32 32 0 0 0-32 32v704a32 32 0 0 0 32 32h704a32 32 0 0 0 32-32V160a32 32 0 0 0-32-32H160zM128 576h768v64H128v-64z m128 256a64 64 0 1 1 0-128 64 64 0 0 1 0 128z m544 0a64 64 0 1 1 0-128 64 64 0 0 1 0 128z m-384-96h224a32 32 0 0 1 0 64h-224a32 32 0 0 1 0-64z" fill="#00a0e9"></path><path d="M638.016 428.48a96 96 0 0 1-188.768 35.072l-93.056-53.696a112 112 0 1 1 26.24-55.168L384 352l78.464 45.312a95.936 95.936 0 0 1 141.952-23.936l52.352-42.4a112 112 0 1 1 48.672 42.912l-67.424 54.624zM272 384a48 48 0 1 0 0-96 48 48 0 0 0 0 96z m480-64a48 48 0 1 0 0-96 48 48 0 0 0 0 96zM544 480a32 32 0 1 0 0-64 32 32 0 0 0 0 64z" fill="#00a0e9"></path></svg>