<?xml version="1.0" standalone="yes"?>
<svg width="359" height="268">
<path style="fill:#00a0e9; stroke:none;" d="M41 43L41 225L312 225L312 43L41 43z"/>
<path style="fill:#ffffff; stroke:none;" d="M54 57L54 212L298 212L298 57L54 57z"/>
<path style="fill:#00a0e9; stroke:none;" d="M93 64.5293C51.4365 74.0677 67.6158 138.16 109 129.331C152.078 120.14 135.771 54.714 93 64.5293M169 64.5177C127.074 73.476 143.271 138.234 185 129.331C227.705 120.22 211.54 55.4282 169 64.5177M245 64.5177C202.86 73.5084 219.088 138.938 261 129.319C303.145 119.648 287.265 55.5005 245 64.5177z"/>
<path style="fill:#ffffff; stroke:none;" d="M97 73.4676C67.4828 79.0363 75.6259 125.721 105 120.529C135.891 115.068 127.763 67.6638 97 73.4676M172 73.5293C141.472 80.5724 153.229 127.331 183 119.957C212.704 112.599 201.505 66.7223 172 73.5293M248 73.5293C218.501 80.2991 227.616 126.467 257 120.33C287.985 113.859 278.351 66.5642 248 73.5293z"/>
<path style="fill:#00a0e9; stroke:none;" d="M96 138.44C54.5961 145.093 63.5103 210.392 105 204.406C149.108 198.041 139.993 131.371 96 138.44M172 138.439C130.898 144.911 138.766 209.998 180 204.568C224.526 198.704 216.228 131.474 172 138.439M247 138.465C203.853 146.244 217.147 212.187 260 203.904C301.855 195.814 288.696 130.947 247 138.465z"/>
<path style="fill:#ffffff; stroke:none;" d="M100 147.529C68.8591 150.25 72.9494 197.404 104 194.907C134.085 192.487 129.937 144.913 100 147.529M176 147.529C144.452 150.285 148.518 197.439 180 194.907C209.882 192.503 205.653 144.937 176 147.529M251 147.479C219.159 151.199 225.419 198.748 257 194.815C286.508 191.14 280.318 144.054 251 147.479z"/>
</svg>
