<?xml version="1.0" standalone="yes"?>
<svg width="599" height="269">
<path style="fill:#ffffff; stroke:none;" d="M0 0L0 269L599 269L599 0L0 0z"/>
<path style="fill:#00a0e9; stroke:none;" d="M44 43L44 203L203 203L203 43L44 43M392 43L392 203L551 203L551 43L392 43z"/>
<path style="fill:#ffffff; stroke:none;" d="M58 57L58 189L189 189L189 57L58 57M406 57L406 189L537 189L537 57L406 57z"/>
<path style="fill:#00a0e9; stroke:none;" d="M82 143C82.1078 182.043 150.147 193.35 161.946 156C170.47 129.019 148.724 119.735 127 114.374C119.99 112.644 107.627 111.694 104.411 103.985C101.217 96.3284 110.815 90.9576 117 90.1852C128.118 88.7968 137.299 93.7654 140 105L160 105C159.977 69.5016 103.602 57.0194 86.9159 88C84.5467 92.3987 84.0241 97.0882 84.0008 102C83.9797 106.424 83.8173 110.813 85.4792 115C91.245 129.525 109.543 131.885 123 134.79C129.116 136.111 137.474 137.477 141.254 143.105C144.725 148.272 140.63 154.222 135.995 156.91C129.034 160.949 117.967 160.936 111.004 156.91C105.534 153.749 105.768 147.211 101.437 144.028C97.3414 141.018 86.929 143 82 143M430 143C430.323 182.007 498.149 193.381 509.946 156C518.496 128.907 496.792 119.752 475 114.374C467.905 112.623 454.663 111.598 452.206 103.166C449.912 95.291 459.769 90.6022 466 90.0934C476.831 89.2089 485.377 94.088 488 105L508 105C507.977 70.2429 452.772 56.8423 435.532 87C433.061 91.3233 432.064 96.0722 432.004 101C431.951 105.33 431.684 109.847 433.108 114C438.37 129.344 457.218 131.814 471 134.79C477.115 136.111 485.474 137.477 489.254 143.105C492.725 148.272 488.63 154.222 483.995 156.91C477.034 160.949 465.967 160.936 459.004 156.91C453.534 153.749 453.769 147.211 449.437 144.028C445.341 141.018 434.929 143 430 143M325 92L325 114L223 114L223 132L325 132L325 153L373 123L373 122C358.197 112.013 341.702 98.3212 325 92z"/>
</svg>
