<?xml version="1.0" standalone="yes"?>
<svg width="301" height="222">
<path style="fill:#ffffff; stroke:none;" d="M0 0L0 222L301 222L301 0L0 0z"/>
<path style="fill:#00a0e9; stroke:none;" d="M92 82L200 82C200 87.7419 201.919 97.716 198.972 102.791C192.443 114.035 182.366 116.651 183.039 132C184.242 159.424 220.162 168.06 239.985 154.402C245.676 150.481 250.253 144.717 252.073 138C253.954 131.056 253 123.133 253 116C253 97.65 259.194 65.0079 243.907 51.3295C232.721 41.321 212.818 45 199 45L95 45C81.7059 45 62.7911 41.595 51.0039 48.9946C44.0133 53.383 41.0143 61.2294 39.6157 69C38.2728 76.4617 39 84.4424 39 92C39 109.729 33.5749 136.973 47.3009 150.699C65.947 169.345 107.658 161.696 108.961 132C109.636 116.598 99.4525 114.127 93.0278 102.816C90.1041 97.6679 92 87.7959 92 82z"/>
</svg>
