<?xml version="1.0" standalone="yes"?>
<svg width="385" height="268">
<path style="fill:#00a0e9; stroke:none;" d="M113 24L113 66C100.723 66 83.6734 63.2404 74.3295 73.1852C64.4892 83.6582 68 102.874 68 116L68 225L173 225L173 116C173 103.177 176.699 83.5836 167.61 73.1049C159.16 63.3637 142.481 66 131 66L131 42L251 42L228 104L281 104C274.406 76.175 255 53.2876 255 24L113 24M214 122L214 221C233.968 221 263.107 226.378 281 216.045C307.88 200.521 311.197 145.266 284 128.468C265.116 116.805 235.255 122 214 122z"/>
<path style="fill:#ffffff; stroke:none;" d="M236 140L236 203C245.969 203 259.403 205.435 267.996 199.351C281.688 189.657 284.916 155.532 270.906 144.638C261.82 137.573 246.744 140 236 140z"/>
</svg>
