<?xml version="1.0" standalone="yes"?>
<svg width="346" height="254">
<path style="fill:#00a0e9; stroke:none;" d="M37 41L37 218L297 218L297 41L37 41z"/>
<path style="fill:#ffffff; stroke:none;" d="M67 55L67 56L158 116L158 55L67 55M171 55L171 117L264 56L235 55L171 55M191 120L191 121L283 121L283 60L255 77.6667L191 120M50 61L50 121L140 121L140 120L50 61M50 135L50 198L144 136L115 135L50 135M188 135L188 136L283 199L283 135L188 135M171 142L171 205L266 205L266 204L200 160.333L171 142M157 143L65 204L65 205L158 205L158 163L157 143z"/>
</svg>
