<svg width="300" height="275" xmlns="http://www.w3.org/2000/svg" preserveAspectRatio="xMidYMid meet"><path stroke="null" id="svg_2" d="m78.652825,228.519467c-17.095884,-0.492792 -21.659327,-1.29358 -30.036991,-5.23592c-14.98444,-7.14549 -25.814103,-24.208429 -25.950325,-40.963372c-0.068111,-7.515085 0.885444,-11.149429 4.903998,-18.726113c7.696553,-14.475778 23.566437,-24.454825 41.615876,-26.179599c3.541777,-0.307995 14.167107,-0.615991 23.634548,-0.615991c19.071105,0 19.34355,0.061599 23.225882,4.003939c4.35911,4.55833 1.975222,10.102245 -4.903998,11.334226c-1.975222,0.307995 -12.396218,0.615991 -23.293993,0.615991c-18.11755,-0.061599 -20.092772,0.061599 -24.247548,1.231981c-15.120662,4.311934 -24.792437,17.124537 -23.498326,31.169122c1.226,13.67499 10.62533,23.715636 25.405437,27.103584c3.609888,0.862387 9.331219,0.923986 40.526099,0.800788c36.166989,-0.184797 36.303211,-0.184797 40.185543,-1.601575c12.804885,-4.681528 19.956549,-13.182198 21.795549,-25.748405c0.408667,-2.833557 1.294111,-5.975108 1.975222,-7.022292c2.724444,-4.003939 9.058775,-4.55833 12.872996,-1.170382c2.451999,2.279165 3.064999,5.543915 2.043333,11.334226c-3.201221,18.541316 -17.640772,33.448287 -37.120544,38.191414c-2.996888,0.739189 -9.194997,1.170382 -23.157771,1.539976c-21.25066,0.615991 -24.111326,0.615991 -45.974986,-0.061599z" fill="#00a0e9"/><path stroke="null" id="svg_3" d="m184.56557,227.472283c-4.427221,-2.525561 -5.585109,-6.591099 -2.996888,-10.41024c2.656333,-3.819141 2.860666,-3.880741 28.334213,-3.880741c24.99677,0 29.35588,-0.431193 36.030767,-3.387948c7.355998,-3.26475 13.349774,-9.732651 16.482884,-17.740528c1.430333,-3.819141 1.634666,-5.174321 1.362222,-10.903033c-0.204333,-6.159906 -0.408667,-6.837495 -2.792555,-11.334226c-4.290999,-7.699882 -10.693441,-12.751005 -20.228994,-15.892556c-4.35911,-1.355179 -4.835887,-1.416778 -39.163877,-1.601575c-39.300099,-0.246396 -43.046209,0 -50.60654,3.26475c-10.693441,4.55833 -16.959661,12.504608 -18.798661,23.900434c-1.157889,6.591099 -1.634666,7.761481 -4.222888,9.609453c-3.677999,2.58716 -10.148552,1.047184 -12.259996,-2.895156c-0.885444,-1.724774 -1.021666,-3.141552 -0.681111,-6.837495c1.702777,-18.726113 15.120662,-34.433872 34.123656,-39.854589c4.154776,-1.231981 7.968998,-1.724774 16.346662,-2.217566c14.37144,-0.800788 73.015088,-0.246396 77.646643,0.739189c1.907111,0.369594 6.26622,1.97117 9.807997,3.511146c5.244554,2.279165 7.355998,3.634344 11.578885,7.515085c12.123774,10.903033 18.185661,25.194014 16.346662,38.561009c-0.817333,5.913509 -3.677999,13.798188 -6.811109,18.664514c-3.74611,5.728712 -12.941107,13.613391 -19.479772,16.631745c-10.62533,4.989524 -12.668663,5.23592 -42.092654,5.482316c-24.519992,0.246396 -26.018436,0.184797 -27.925547,-0.923986z" fill="#00a0e9"/><path stroke="null" id="svg_4" d="m216.509671,121.953101c-9.194997,-0.800788 -16.074217,-3.819141 -21.931771,-9.424656c-7.287887,-7.083891 -10.489108,-15.399764 -10.489108,-27.473179c-0.068111,-12.196613 3.201221,-20.389287 10.829663,-27.781174c7.696553,-7.391887 15.869884,-10.102245 28.810991,-9.671052c8.650108,0.307995 11.510774,1.108783 17.640772,4.743127c6.198109,3.634344 10.829663,10.595038 12.668663,19.034108l0.476778,1.97117l-10.557219,0l-10.557219,0l-0.408667,-1.478377c-0.544889,-1.97117 -3.541777,-5.112722 -5.925665,-6.221505c-1.089777,-0.554392 -3.74611,-0.923986 -6.198109,-0.923986c-10.148552,0.061599 -15.120662,5.420717 -16.006106,17.247736c-0.749222,10.41024 2.247666,18.664514 7.764664,21.436471c7.764664,3.880741 16.959661,1.724774 20.705771,-4.866325l1.294111,-2.402363l10.216664,0c5.65322,0 10.216664,0.184797 10.216664,0.369594c0,0.184797 -0.476778,2.032769 -1.089777,4.127137c-4.427221,15.584561 -17.708883,23.099646 -37.4611,21.313273z" fill="#00a0e9"/><path stroke="null" id="svg_5" d="m47.321723,84.747271l0,-36.035448l15.869884,0c21.999882,0.061599 30.105102,1.539976 37.4611,7.022292c10.352886,7.576684 11.374552,24.393226 2.111444,34.187476c-4.97211,5.174321 -16.550995,8.685467 -28.947213,8.685467l-6.061887,0l0,11.08783l0,11.08783l-10.216664,0l-10.216664,0l0,-36.035448zm33.510656,-2.279165c5.312665,-1.416778 8.377664,-6.714297 6.742998,-11.580622c-1.498444,-4.55833 -6.742998,-6.775896 -15.733662,-6.775896l-4.086665,0l0,9.547854l0,9.547854l5.176443,0c2.860666,0 6.402442,-0.307995 7.900886,-0.739189z" fill="#00a0e9"/><path stroke="null" id="svg_6" d="m121.562811,84.747271l0,-36.035448l10.216664,0l10.216664,0l0,28.335566l0,28.335566l17.368328,0l17.368328,0l0,7.699882l0,7.699882l-27.584991,0l-27.584991,0l0,-36.035448z" fill="#00a0e9"/></svg>