<svg width="300" height="275" xmlns="http://www.w3.org/2000/svg"><path stroke="null" id="svg_3" d="m103.977228,162.971353c5.948681,0 10.773042,-3.944401 10.775569,-8.812638c0.00455,-0.001655 0.014155,-53.851789 0.014155,-53.851789c0,-0.506393 0.500484,-0.91763 1.121792,-0.91763l2.281499,0c0.61878,0 1.121792,0.409582 1.121792,0.91763c0,0 0,151.077096 0,151.094886c0,6.280675 6.221672,11.371906 13.895758,11.371906c7.674592,0 13.895758,-5.091645 13.895758,-11.371906c0,-0.01779 0,-88.901686 0,-88.901686c0,-0.648712 0.367527,-0.918043 1.14808,-0.918043l2.24055,0c0.78308,0 1.14808,0.270986 1.14808,0.918043c0,0 0,88.885964 0,88.901686c0,6.280675 6.222177,11.371906 13.896263,11.371906c7.674086,0 13.895758,-5.091645 13.895758,-11.371906c0,-0.01779 0,-151.094886 0,-151.094886c0,-0.506393 0.499978,-0.91763 1.121286,-0.91763l2.282004,0c0.619286,0 1.121792,0.409582 1.121792,0.91763c0,0 0.010111,53.850134 0.014155,53.851789c0.005055,4.868237 4.827394,8.812638 10.775569,8.812638c5.950703,0 10.777592,-3.948125 10.777592,-8.820084c0,-0.027719 0,-60.551562 0,-61.273502c0,-12.068196 -11.345818,-21.353715 -25.524677,-21.353715c-0.359944,0 -19.421302,0 -28.360247,0c0,0 -1.791126,0 -4.536709,0c-8.93844,0 -27.999798,0 -28.359742,0c-14.181387,0 -25.524677,9.283037 -25.524677,21.353715c0,0.72194 0,61.245783 0,61.273502c0.000506,4.872374 4.825372,8.820084 10.778603,8.820084z" fill="#00a0e9"/><circle stroke="null" id="svg_4" r="28.58494" cy="34.744469" cx="148.328569" fill="#00a0e9"/>
</svg>