<svg height="1024" width="1024" xmlns="http://www.w3.org/2000/svg" xmlns:xlink="http://www.w3.org/1999/xlink" version="1.1" x="0px" y="0px" viewBox="0 0 120 120"><path fill="#00a0e9" d="M107.5,31.5c-1.8-0.5-3.6,1.1-4.1,2.9l-0.9,3.4c-1.8,0.3-3,1-4,1.7c-1.4,0.8-2.4,1.4-4.8,1.4c-2.4,0-3.4-0.6-4.8-1.4 c-1.5-0.9-3.2-1.9-6.5-1.9c-3.3,0-5,1-6.5,1.9c-1.4,0.8-2.4,1.4-4.8,1.4c-2.4,0-3.4-0.6-4.8-1.4c-1.5-0.9-3.2-1.9-6.5-1.9 c-3.3,0-5,1-6.5,1.9c-1.4,0.8-2.4,1.4-4.8,1.4c-2.4,0-3.4-0.6-4.8-1.4c-1.5-0.9-3.2-1.9-6.5-1.9s-5,1-6.5,1.9 c-1.4,0.8-2.4,1.4-4.8,1.4c-2.4,0-3.4-0.6-4.8-1.4c-1.1-0.6-2.3-1.3-4-1.7l-0.9-3.3c-0.5-1.8-2.3-3.8-4.1-3.3 c-1.8,0.5-2.8,2.5-2.4,4.2l13.3,50.3c0.4,1.5,1.7,3.1,3.2,3.1h66.7c1.5,0,2.8-1.6,3.2-3l13.3-50.5C110.4,33.6,109.3,32,107.5,31.5z M90.8,82.9H29.2L18.4,41.6c0.5,0.2,0.9,0.5,1.4,0.7c1.5,0.9,3.2,1.9,6.5,1.9c3.3,0,5-1,6.5-1.9c1.4-0.8,2.4-1.4,4.8-1.4 s3.4,0.6,4.8,1.4c1.5,0.9,3.2,1.9,6.5,1.9c3.3,0,5-1,6.5-1.9c1.4-0.8,2.4-1.4,4.8-1.4c2.4,0,3.4,0.6,4.8,1.4 c1.5,0.9,3.2,1.9,6.5,1.9s5-1,6.5-1.9c1.4-0.8,2.4-1.4,4.8-1.4c2.4,0,3.4,0.6,4.8,1.4c1.5,0.9,3.2,1.9,6.5,1.9c3.3,0,5-1,6.5-1.9 c0.5-0.3,0.9-0.5,1.3-0.7L90.8,82.9z"></path></svg>