<?xml version="1.0" standalone="yes"?>
<svg width="374" height="242">
<path style="fill:#00a0e9; stroke:none;" d="M40 92L40 169L86 169C92.0969 169 101.196 167.313 106.907 169.603C113.639 172.304 118.554 183.866 124.004 188.829C138.548 202.076 158.256 209.821 178 209.821C197.741 209.821 217.4 202.017 231.996 188.826C237.637 183.729 241.59 173.62 248.104 170.028C253.138 167.252 262.39 169 268 169L315 169L315 92L269 92C263.007 92 253.764 93.7378 248.184 91.3966C241.591 88.6303 236.465 77.0761 230.999 72.1736C216.397 59.0774 196.576 51.8661 177 52.0046C158.155 52.1379 139.023 59.6369 125 72.1736C119.553 77.0431 114.341 88.6587 107.816 91.3966C102.236 93.7378 92.9935 92 87 92L40 92z"/>
<path style="fill:#ffffff; stroke:none;" d="M132 81C106.431 107.111 100.129 156.806 133 181L177 131L177 130C162.262 114.601 149.427 93.2838 132 81M223 81L179 130L179 131C190.302 142.396 200.551 154.955 211.155 167C213.965 170.192 219.153 178.793 223.91 178.793C230.814 178.793 237.933 162.274 240.269 157C250.959 132.858 245.383 97.0994 223 81M51 103L51 158L104 158C99.2785 137.591 99.7704 123.437 104 103L51 103M252 103C255.012 123.474 256.714 137.438 252 158L304 158L304 103L252 103z"/>
</svg>
