<?xml version="1.0" standalone="yes"?>
<svg width="294" height="262">
<path style="fill:#00a0e9; stroke:none;" d="M62 229L63 229C67.4871 223.49 78.8078 206.773 86.0008 205.87C89.4635 205.436 94.0226 209.253 97 210.752C104.185 214.371 111.154 217.254 119 219.116C151.138 226.743 186.998 217.342 209.91 192.996C232.844 168.627 241.918 132.124 231.975 100C229.449 91.8415 226.096 84.2478 221.575 77C219.839 74.2168 215.391 69.8849 215.586 66.4244C215.95 59.9498 230.497 48.705 235 44C233.481 41.8499 231.95 39.9487 229.981 38.1698C215.173 24.7896 212.923 55.7664 200 52.2523C194.906 50.8673 189.785 45.7122 185 43.2593C173.836 37.5358 161.545 33.9494 149 33.0895C90.836 29.1027 44.5181 76.4229 47.0394 134C47.6376 147.663 52.1069 162.165 58.8727 174C61.9643 179.408 69.5374 186.037 70.8326 192C72.9293 201.653 50.7851 208.386 51.9213 218C52.4537 222.505 58.8685 226.264 62 229z"/>
<path style="fill:#ffffff; stroke:none;" d="M84 181C100.509 169.274 113.937 149.667 127.961 135C143.623 118.62 159.295 101.996 174.285 85C177.959 80.8347 189.125 73.2282 188.833 67.0934C188.6 62.2012 177.818 57.7303 174 56.0394C157.625 48.787 139.386 47.0486 122 51.375C61.884 66.3343 48.2307 136.619 84 181M202 79L131.83 154L97 192C128.738 211.425 168.107 210.057 195.961 183.829C221.16 160.102 232.325 104.062 202 79z"/>
</svg>
