<svg width="300" height="275" xmlns="http://www.w3.org/2000/svg"><path stroke="null" id="svg_2" d="m90.031376,175.70634l-16.403521,67.164406c-0.68748,2.815064 0.478866,5.747564 2.948462,7.412661l23.171648,15.620144c1.264134,0.852121 2.757034,1.2935 4.265935,1.2935c0.78112,0 1.566981,-0.118003 2.326766,-0.359116c2.228385,-0.705752 3.974941,-2.380493 4.709241,-4.514768l18.268016,-53.113482l40.634837,-14.05603l4.827772,15.251383c0.579617,1.831891 1.908351,3.361965 3.683947,4.241885l79.396883,39.347354c2.04881,1.015511 4.473957,1.058627 6.560697,0.118571c2.08674,-0.940057 3.596827,-2.757197 4.085768,-4.915866l5.741647,-25.379826c0.67622,-2.9898 -0.727188,-6.05789 -3.480074,-7.610657l-49.548377,-27.940729l-34.430326,-89.789305l2.451223,-0.360251l26.491112,29.36528c1.692624,1.876709 4.288456,2.769678 6.842801,2.357233c2.554938,-0.41358 4.697981,-2.075273 5.651564,-4.380879l11.853112,-28.649884c0.849275,-2.052013 0.651921,-4.365562 -0.533983,-6.258156l-22.601513,-36.078998c-1.648175,-2.630683 -4.875185,-3.948011 -7.999665,-3.267221l-55.496269,12.105002c4.386837,-6.975821 6.405422,-15.060195 5.723275,-23.339728c-0.81905,-9.943496 -5.492139,-19.137555 -13.156954,-25.888149c-7.622143,-6.71315 -17.506453,-10.409836 -27.831699,-10.409836c-1.085152,0 -2.186306,0.041415 -3.272644,0.123677c-22.621664,1.707647 -39.573391,20.714717 -37.790091,42.369491c0.819643,9.943496 5.492139,19.137555 13.157547,25.888149c1.639878,1.443841 3.389397,2.73961 5.22011,3.897519l-10.760255,2.347021l-25.518564,-17.941068c-1.653509,-1.162448 -3.734915,-1.616875 -5.752315,-1.253787c-2.015622,0.36252 -3.785291,1.508516 -4.88526,3.16567l-13.347196,20.102574c-1.479861,2.22845 -1.543275,5.058832 -0.165351,7.346284l21.693565,36.013188c1.427115,2.369714 4.146218,3.740937 7.000448,3.527056l51.999601,-3.925885l11.259863,34.149527l-32.294395,11.171186c-2.359362,0.815813 -4.126068,2.718051 -4.697388,5.054861zm26.043657,-157.77236c0.700519,-0.052761 1.409335,-0.079993 2.107483,-0.079993c13.628708,0 25.144598,10.203897 26.217898,23.230234c0.55354,6.71315 -1.657658,13.231141 -6.225254,18.352378c-4.568189,5.121238 -10.945756,8.23358 -17.958649,8.762893c-0.700519,0.052761 -1.408742,0.079993 -2.105113,0.079993c-0.000593,0 -0.001185,0 -0.001778,0c-13.6293,-0.001135 -25.145784,-10.205599 -26.219083,-23.230801c-1.141455,-13.858034 9.707698,-26.022038 24.184496,-27.114704zm22.669669,152.57113c3.736693,-1.291798 5.742833,-5.176836 4.546854,-8.803741l-15.173168,-46.019089c-1.03774,-3.148651 -4.20904,-5.189884 -7.647035,-4.935155l-53.210396,4.017224l-17.115893,-28.412743l6.689896,-10.075115l21.860694,15.369386c1.733518,1.218613 3.934048,1.656587 6.031456,1.198757l122.271958,-26.670489l17.957464,28.666337l-6.003601,14.511592l-21.177955,-23.475318c-1.66714,-1.847776 -4.210225,-2.744716 -6.730197,-2.37482l-15.453494,2.270432c-2.196974,0.322808 -4.125476,1.572056 -5.25567,3.403947s-1.341772,4.052398 -0.576061,6.049381l38.463347,100.306933c0.590285,1.539151 1.718109,2.835488 3.194414,3.666618l47.216278,26.626238l-2.557901,11.312449l-68.022044,-33.710418l-6.184954,-19.538654c-0.5891,-1.861959 -1.951615,-3.410187 -3.768104,-4.2833c-1.816489,-0.87141 -3.928121,-0.991683 -5.839435,-0.330183l-51.370201,17.768602c-2.140672,0.740358 -3.807219,2.382195 -4.518999,4.452362l-16.268396,47.300675l-10.910789,-7.354794l14.351155,-58.758927l35.200778,-12.178186z" fill="#00a0e9"/></svg>