<?xml version="1.0" standalone="yes"?>
<svg width="362" height="266">
<path style="fill:#ffffff; stroke:none;" d="M0 0L0 266L362 266L362 0L0 0z"/>
<path style="fill:#00a0e9; stroke:none;" d="M82 39C92.6037 58.0463 106.495 76.2398 119.141 94C123.516 100.144 128.047 110.906 134.515 114.972C137.765 117.015 143.328 116 147 116L175 116L214 116C219.357 116 226.906 117.349 231.961 115.397C238.774 112.765 244.081 101.583 248.424 96C262.302 78.1605 280.936 59.2045 291 39L82 39M178 130L178 158L196 158L196 130L178 130M144 134L131 158C134.873 159.81 140.523 165.079 144.896 164.748C150.655 164.311 158.43 146.959 160 142L144 134M215 142C216.824 146.982 224.299 164.29 230.104 164.897C234.394 165.346 240.331 159.953 244 158C242.82 152.857 235.45 136.029 229.79 134.878C225.415 133.988 218.723 140.018 215 142M123 169C119.945 173.991 109.696 185.871 110.878 191.815C111.689 195.892 121.93 201.746 125.621 199.292C131.064 195.673 136.873 183.243 138 177L123 169M237 177C238.111 182.762 244.694 197.289 250.329 199.84C254.215 201.599 264.248 195.215 264.263 190.957C264.286 184.506 255.344 174.464 252 169L237 177M178 172L178 199L196 199L196 172L178 172M101 205L88 228L104 237L117 213L101 205M258 213L271 237C274.951 235.749 285.378 231.764 285.748 226.896C286.229 220.552 276.945 210.534 274 205L258 213M178 213L178 240L196 240L196 213L178 213z"/>
</svg>
