<svg version="1.0" xmlns="http://www.w3.org/2000/svg" width="1200px" height="597px" viewBox="0 0 12000 5970" preserveAspectRatio="xMidYMid meet">
<g id="layer101" fill="#ffffff" stroke="none">
 <path d="M3382 5053 l3 -178 243 -3 242 -2 0 180 0 180 -25 0 c-16 0 -25 -6 -25 -15 0 -13 -28 -15 -190 -15 -162 0 -190 2 -190 15 0 10 -10 15 -30 15 l-30 0 2 -177z m436 68 c2 -12 1 -34 -2 -47 l-6 -24 -185 0 -185 0 0 50 0 50 188 -2 187 -3 3 -24z m2 -145 c0 -68 7 -66 -196 -66 l-184 0 0 50 0 50 190 0 190 0 0 -34z"/>
 <path d="M5440 4960 l0 -269 88 -3 87 -3 3 -127 3 -128 36 0 c29 0 34 3 25 12 -8 8 -12 51 -12 130 l0 117 93 3 92 3 3 246 c2 231 1 247 -17 263 -22 20 -131 35 -131 18 0 -6 -3 -17 -6 -26 -5 -13 1 -16 28 -16 54 0 70 -17 66 -75 l-3 -50 -152 -3 -153 -3 0 91 c0 89 0 90 -25 90 l-25 0 0 -270z m358 -7 l-3 -58 -152 -3 -153 -3 0 61 0 60 155 0 156 0 -3 -57z m2 -158 l0 -55 -155 0 -155 0 0 48 c0 27 3 52 7 55 3 4 73 7 155 7 l148 0 0 -55z"/>
 <path d="M6072 4848 l3 -383 133 -3 c102 -2 134 0 137 11 3 7 -15 59 -40 116 -25 57 -45 112 -45 123 0 10 16 41 35 69 99 145 62 314 -71 322 -36 2 -39 0 -42 -26 -3 -27 -2 -29 27 -22 26 6 36 2 62 -25 30 -30 31 -34 26 -96 -5 -66 -29 -116 -84 -175 l-24 -27 50 -101 c28 -55 51 -107 51 -116 0 -12 -15 -15 -80 -15 l-80 0 0 365 0 365 -30 0 -30 0 2 -382z"/>
 <path d="M6610 5224 c-8 -4 -21 -13 -27 -22 -25 -31 -15 -38 51 -34 59 4 65 2 80 -21 19 -28 31 -100 41 -234 l7 -93 -114 0 -115 0 -17 88 c-18 95 -75 225 -122 280 -26 30 -32 33 -57 23 l-29 -11 42 -47 c83 -95 124 -219 136 -415 l7 -108 -66 0 c-65 0 -67 -1 -67 -25 l0 -25 105 0 104 0 3 -72 3 -73 29 0 29 0 1 70 1 70 108 3 c106 3 107 3 107 27 l0 25 -155 0 -156 0 3 68 3 67 133 3 132 3 0 87 c-1 169 -33 332 -70 352 -25 13 -109 22 -130 14z"/>
 <path d="M7170 5010 l0 -220 233 2 232 3 0 80 0 80 -207 3 -208 2 0 35 0 35 215 0 215 0 0 100 0 100 -25 0 c-16 0 -25 -6 -25 -15 0 -13 -28 -15 -189 -15 -159 0 -190 2 -195 15 -3 8 -15 15 -26 15 -19 0 -20 -6 -20 -220z m428 108 l-3 -43 -187 -3 -188 -2 0 45 0 45 191 0 190 0 -3 -42z m-20 -240 l-3 -43 -177 -3 -178 -2 0 45 0 45 181 0 180 0 -3 -42z"/>
 <path d="M9250 5081 l0 -151 -186 0 -185 0 3 -22 c3 -23 5 -23 186 -26 l182 -2 0 -180 0 -180 -160 0 -160 0 0 -25 0 -25 355 0 c209 0 355 4 355 9 0 39 -8 41 -166 41 l-154 0 0 180 0 180 180 0 180 0 0 25 0 25 -180 0 -179 0 -3 148 -3 147 -32 3 -33 3 0 -150z"/>
 <path d="M9942 5063 l3 -168 273 -3 272 -2 0 170 0 170 -24 0 c-18 0 -25 -6 -28 -22 -3 -23 -3 -23 -220 -26 l-218 -2 0 25 c0 21 -5 25 -30 25 l-30 0 2 -167z m493 -28 l0 -100 -217 -3 -218 -2 0 105 0 105 218 -2 217 -3 0 -100z"/>
 <path d="M4186 5212 c-3 -5 3 -20 13 -33 10 -13 28 -43 40 -66 20 -40 23 -42 46 -31 l25 11 -33 61 c-26 47 -39 62 -59 64 -15 2 -29 -1 -32 -6z"/>
 <path d="M4392 5208 c-7 -7 -12 -40 -12 -80 0 -68 0 -68 28 -68 26 0 27 2 24 39 -7 75 2 81 138 81 134 0 148 -3 161 -36 9 -26 16 -29 38 -15 11 7 11 15 -5 47 l-19 39 -170 3 c-124 2 -174 -1 -183 -10z"/>
 <path d="M5127 5192 c-23 -25 -21 -34 9 -63 14 -13 60 -77 101 -141 42 -65 80 -118 84 -118 4 0 10 7 13 16 7 18 -32 97 -108 218 -31 48 -56 92 -56 97 0 15 -26 10 -43 -9z"/>
 <path d="M4856 5143 c-25 -32 -46 -61 -46 -64 0 -4 8 -10 18 -14 25 -10 127 102 111 122 -20 23 -36 14 -83 -44z"/>
 <path d="M8250 5181 c0 -19 8 -21 108 -23 l107 -3 3 -53 c4 -75 -5 -82 -99 -82 -72 0 -79 -2 -79 -20 0 -17 8 -19 88 -22 l87 -3 0 -55 0 -55 -92 -3 -93 -3 0 -194 0 -195 215 0 215 0 0 195 0 195 -95 0 -96 0 3 58 3 57 98 3 c87 2 98 5 95 20 -3 14 -19 18 -98 22 l-95 5 0 65 0 65 108 3 c96 2 108 5 105 20 -3 15 -26 17 -246 20 -236 2 -242 2 -242 -17z m218 -410 c6 -83 0 -91 -68 -91 l-60 0 0 63 c0 35 3 67 7 71 4 4 32 6 63 4 l55 -3 3 -44z m180 -18 l-3 -68 -60 0 -60 0 -3 54 c-5 78 -2 81 68 81 l61 0 -3 -67z m-183 -178 l0 -60 -62 -3 -63 -3 0 66 0 66 63 -3 62 -3 0 -60z m185 0 l0 -65 -65 0 -65 0 0 58 c0 32 3 62 7 65 3 4 33 7 65 7 l58 0 0 -65z"/>
 <path d="M1324 4948 c46 -112 109 -266 140 -343 32 -77 93 -225 136 -330 43 -104 127 -307 185 -450 59 -143 145 -351 191 -463 46 -111 84 -206 84 -210 0 -5 -33 -33 -72 -63 -40 -30 -158 -119 -263 -199 -476 -361 -615 -466 -825 -625 -124 -93 -246 -186 -272 -205 -26 -19 -47 -38 -48 -42 0 -5 428 -9 950 -10 l951 -3 55 -125 c31 -69 84 -192 119 -275 34 -82 122 -287 195 -455 72 -168 160 -372 195 -455 113 -267 182 -419 192 -422 5 -2 34 58 63 134 29 76 88 228 131 338 114 294 190 492 289 750 48 127 113 293 143 370 l56 140 697 5 696 5 -48 41 c-27 22 -83 66 -124 97 -41 31 -132 100 -202 154 -408 316 -492 380 -521 401 -17 13 -77 59 -132 102 -55 44 -125 99 -157 122 -56 42 -318 245 -526 406 -59 45 -147 114 -197 152 -49 38 -156 120 -237 182 -80 62 -202 155 -270 207 -68 52 -141 109 -163 128 -22 18 -76 60 -120 93 -124 94 -252 193 -469 361 -109 85 -217 167 -240 183 -22 17 -87 66 -143 110 -56 45 -126 99 -154 121 -262 201 -359 275 -363 275 -3 0 32 -91 78 -202z"/>
 <path d="M4566 5111 c-50 -52 -8 -71 46 -21 28 25 31 31 18 40 -23 15 -34 12 -64 -19z"/>
 <path d="M7940 5114 c-6 -14 -10 -27 -10 -29 0 -2 27 -12 60 -21 l60 -17 0 -123 0 -124 -50 0 c-47 0 -50 -2 -50 -25 0 -23 3 -25 50 -25 l50 0 0 -105 0 -105 -55 0 c-48 0 -55 -2 -55 -20 0 -19 7 -20 145 -20 138 0 145 1 145 20 0 18 -7 20 -60 20 l-60 0 0 105 0 105 49 0 c52 0 65 8 55 34 -4 12 -20 16 -55 16 l-49 0 0 110 c0 61 2 110 5 110 2 0 27 -9 55 -20 62 -24 60 -24 60 -1 0 27 -12 33 -140 82 -63 24 -116 47 -118 51 -7 16 -23 7 -32 -18z"/>
 <path d="M4280 4990 c0 -19 7 -20 255 -20 l255 0 0 -30 0 -30 -296 0 c-276 0 -295 -1 -292 -17 3 -17 26 -18 296 -21 l293 -2 -3 -23 -3 -22 -252 -3 c-245 -2 -253 -3 -253 -22 0 -19 7 -20 285 -20 l285 0 0 45 0 45 45 0 c38 0 45 3 45 20 0 17 -7 20 -45 20 l-45 0 0 50 0 50 -285 0 c-278 0 -285 0 -285 -20z"/>
 <path d="M3250 4885 c-15 -18 -16 -17 36 -43 45 -23 127 -109 118 -123 -3 -5 -43 -9 -90 -9 -83 0 -84 0 -84 -25 l0 -25 100 0 c99 0 100 0 100 -24 0 -13 3 -38 6 -55 l7 -31 -61 0 c-58 0 -61 1 -81 35 -21 35 -35 42 -60 26 -10 -7 -4 -23 28 -77 23 -38 44 -79 47 -91 7 -26 22 -29 49 -10 12 10 14 16 7 21 -7 4 -12 16 -12 27 0 18 8 19 126 19 124 0 125 0 122 23 -3 19 -10 22 -60 25 l-58 3 0 39 c0 21 -3 45 -6 54 -5 14 6 16 81 16 84 0 86 1 83 23 -3 20 -9 22 -80 25 -43 2 -78 7 -78 12 0 6 26 27 58 47 31 21 59 39 62 41 3 2 -4 10 -14 18 -26 19 -53 10 -96 -32 -20 -19 -40 -34 -45 -34 -6 0 -18 13 -27 30 -16 29 -102 91 -144 104 -14 4 -26 1 -34 -9z"/>
 <path d="M7010 4775 l0 -85 178 -2 177 -3 3 -27 c3 -23 8 -28 31 -28 23 0 27 4 26 28 l0 27 178 3 178 2 -3 83 c-3 81 -3 82 -30 85 l-28 3 0 -65 0 -66 -330 0 -330 0 0 65 c0 63 -1 65 -25 65 -25 0 -25 -1 -25 -85z"/>
 <path d="M9856 4828 c-26 -36 -19 -44 42 -54 l57 -9 57 -110 c31 -60 65 -132 74 -160 22 -65 27 -70 62 -56 l29 12 -62 117 c-34 64 -71 134 -84 155 l-23 37 49 0 c70 0 386 -41 397 -51 6 -6 -6 -32 -32 -68 -48 -68 -50 -76 -23 -91 17 -9 25 -1 64 58 50 75 117 200 117 220 0 6 -4 12 -9 12 -5 0 -16 3 -24 6 -11 4 -20 -8 -33 -42 l-18 -46 -45 5 c-281 36 -473 57 -508 57 -24 0 -48 6 -57 15 -13 14 -16 13 -30 -7z"/>
 <path d="M3700 4655 l0 -165 150 0 150 0 0 165 0 165 -24 0 c-15 0 -26 -7 -29 -20 -5 -18 -14 -20 -100 -20 -86 0 -95 2 -100 20 -3 12 -14 20 -26 20 -20 0 -21 -4 -21 -165z m245 -20 l0 -100 -97 -3 -98 -3 0 99 c0 54 3 102 7 106 4 4 48 5 98 4 l90 -3 0 -100z"/>
 <path d="M9056 4763 c-10 -32 -27 -75 -38 -96 -21 -41 -18 -67 6 -67 20 0 40 31 77 119 30 71 30 75 13 88 -30 22 -40 15 -58 -44z"/>
 <path d="M9443 4809 c-8 -8 -3 -28 22 -73 18 -33 39 -80 46 -103 7 -24 14 -43 16 -43 2 0 18 7 35 16 26 14 29 18 17 28 -8 6 -22 29 -32 51 -53 116 -63 135 -77 135 -9 0 -21 -5 -27 -11z"/>
 <path d="M5210 4735 c-25 -19 -57 -39 -72 -46 -30 -12 -32 -17 -19 -38 8 -13 16 -12 51 4 23 10 62 33 86 50 42 30 43 32 26 48 -23 21 -18 22 -72 -18z"/>
 <path d="M4334 4733 c-10 -15 -18 -16 -75 -7 -65 11 -78 7 -79 -23 0 -9 19 -13 64 -13 83 0 96 -6 96 -41 0 -28 -1 -28 -67 -31 -60 -3 -68 -5 -68 -23 0 -18 8 -20 68 -23 68 -3 68 -3 65 -30 -3 -26 -5 -27 -70 -30 -60 -3 -68 -5 -68 -22 0 -18 7 -20 70 -20 63 0 70 -2 70 -20 0 -15 7 -20 29 -20 24 0 28 3 24 20 -5 19 0 20 66 20 64 0 71 2 71 20 0 18 -7 20 -70 20 l-70 0 0 30 0 30 65 0 c63 0 65 1 65 25 0 24 -2 25 -65 25 l-65 0 0 30 0 30 70 -6 c59 -6 70 -4 70 8 0 19 -29 28 -91 28 -38 0 -48 4 -52 20 -6 25 -38 26 -53 3z"/>
 <path d="M4737 4730 c-5 -18 -14 -20 -76 -20 -64 0 -71 -2 -71 -20 0 -18 7 -20 75 -20 73 0 75 -1 75 -25 0 -23 -3 -24 -67 -27 -60 -3 -68 -5 -68 -23 0 -18 8 -20 68 -23 68 -3 68 -3 65 -30 -3 -26 -5 -27 -75 -30 -65 -3 -73 -5 -73 -22 0 -18 7 -20 75 -20 68 0 75 -2 75 -20 0 -15 7 -20 29 -20 24 0 28 3 24 20 -5 17 1 19 68 22 58 2 74 6 74 18 0 12 -16 16 -72 18 l-73 3 0 29 c0 29 1 29 63 32 54 3 62 5 62 23 0 18 -8 20 -62 23 -59 3 -63 4 -63 27 0 24 2 25 80 25 73 0 80 2 80 20 0 18 -7 20 -79 20 -70 0 -79 2 -84 20 -3 11 -14 20 -25 20 -11 0 -22 -9 -25 -20z"/>
 <path d="M5451 4564 c-28 -63 -32 -77 -20 -85 8 -5 17 -9 20 -9 3 0 23 34 45 75 33 64 37 77 24 85 -27 18 -35 11 -69 -66z"/>
 <path d="M5764 4634 c-12 -5 63 -160 77 -158 5 1 14 2 20 3 12 1 6 26 -28 104 -24 54 -37 64 -69 51z"/>
 <path d="M7010 4632 c0 -4 18 -25 39 -46 22 -21 51 -65 66 -97 14 -33 28 -59 30 -59 2 0 16 5 31 10 21 8 24 14 16 22 -7 7 -12 20 -12 30 0 16 11 18 110 18 91 0 110 3 110 15 0 12 -14 15 -65 15 -36 0 -65 3 -65 7 0 3 12 21 26 40 28 38 28 38 -2 47 -18 5 -28 -3 -58 -44 -47 -65 -68 -65 -124 0 -34 39 -50 50 -73 50 -16 0 -29 -4 -29 -8z"/>
 <path d="M7648 4613 c-49 -83 -89 -93 -130 -33 -20 29 -35 40 -53 40 -31 0 -31 -8 0 -50 13 -18 32 -56 41 -84 9 -28 18 -52 19 -54 1 -1 14 3 28 9 22 10 25 17 20 40 l-5 29 112 0 c85 0 111 3 108 13 -3 7 -27 13 -61 15 -62 3 -72 16 -37 47 24 22 26 41 4 49 -25 10 -29 8 -46 -21z"/>
 <path d="M5289 4562 c-14 -9 -46 -31 -71 -48 -37 -24 -44 -33 -36 -47 13 -25 24 -22 95 29 56 40 62 48 51 62 -7 10 -13 18 -13 19 -1 1 -12 -5 -26 -15z"/>
 <path d="M10010 4195 c-153 -34 -298 -139 -353 -256 -39 -83 -50 -142 -50 -264 1 -190 47 -365 150 -568 215 -421 615 -661 1060 -634 57 4 136 14 176 23 94 20 227 81 227 104 0 31 -62 325 -70 334 -5 5 -41 -21 -85 -62 -109 -102 -195 -143 -312 -149 -232 -13 -446 114 -600 355 -84 131 -156 370 -155 517 0 239 130 365 375 365 135 0 284 -55 475 -176 29 -19 54 -34 57 -34 3 0 -56 146 -132 327 -6 15 -136 66 -256 100 -79 22 -116 26 -267 29 -128 3 -193 0 -240 -11z"/>
 <path d="M6420 4175 c0 -7 132 -446 205 -685 35 -113 78 -254 95 -315 42 -145 200 -657 206 -667 4 -7 1124 -12 1124 -5 0 1 -13 45 -29 97 l-28 95 -356 3 c-267 2 -357 5 -364 15 -6 6 -29 77 -52 157 -24 80 -56 187 -72 238 -16 51 -29 97 -29 102 0 6 118 10 325 10 287 0 325 2 325 16 0 8 -12 55 -27 105 l-27 89 -332 0 -333 0 -21 73 c-12 39 -48 158 -81 263 -32 105 -59 197 -59 203 0 8 98 11 355 11 195 0 355 3 355 7 0 4 -12 49 -26 100 l-27 93 -563 0 c-310 0 -564 -2 -564 -5z"/>
 <path d="M8410 4174 c0 -11 82 -292 160 -544 213 -697 271 -893 268 -908 -3 -15 -28 -17 -261 -20 -141 -1 -257 -6 -257 -10 0 -4 13 -47 29 -97 l29 -90 702 -3 702 -2 -7 29 c-3 17 -16 61 -28 98 l-22 68 -242 5 c-133 3 -244 8 -248 11 -3 4 -33 98 -66 210 -33 112 -86 290 -119 394 -32 105 -80 262 -105 350 -26 88 -64 214 -85 280 -21 66 -46 146 -55 178 l-16 57 -190 0 c-104 0 -189 -3 -189 -6z"/>
 <path d="M4760 4146 c0 -22 59 -646 80 -836 10 -96 16 -177 13 -180 -5 -5 -201 194 -723 734 l-275 285 -202 0 c-112 1 -203 -2 -203 -7 0 -4 77 -91 171 -192 95 -102 271 -293 393 -424 122 -132 289 -312 371 -401 83 -88 254 -273 381 -410 528 -571 639 -690 646 -693 11 -5 12 -11 -27 380 -72 716 -105 1072 -99 1077 5 6 278 -268 1012 -1013 238 -241 434 -437 437 -435 2 2 -21 85 -52 184 -147 482 -251 819 -310 1010 -36 116 -93 305 -128 420 -79 263 -152 492 -160 505 -6 9 -425 15 -425 7 0 -2 78 -240 174 -528 96 -288 173 -525 172 -527 -2 -1 -41 39 -86 90 -102 114 -367 394 -596 628 -94 96 -207 212 -251 258 l-80 82 -116 0 c-93 0 -117 -3 -117 -14z"/>
 </g>

</svg>