<?xml version="1.0" encoding="utf-8"?>
<!DOCTYPE svg PUBLIC "-//W3C//DTD SVG 20010904//EN" "http://www.w3.org/TR/2001/REC-SVG-20010904/DTD/svg10.dtd">
<svg version="1.0" xmlns="http://www.w3.org/2000/svg" width="400px" height="400px" viewBox="0 0 400 400" preserveAspectRatio="xMidYMid meet">
 <g fill="#ffffff">
  <path d="M181.9 375 c-6.6 -1.1 -13.9 -5.1 -18.6 -10.3 -8.6 -9.3 -9.2 -21.6 -1.5 -32.6 3.2 -4.7 31.3 -31.7 52.8 -50.8 l7 -6.1 7.2 6 7.3 6 5.7 -5.3 c3.2 -3 15.8 -14.9 28.2 -26.5 12.4 -11.6 26.7 -24.8 31.8 -29.4 12.2 -10.8 13.4 -13.3 14.1 -27.9 l0.6 -11.5 27.9 -13.2 c31.6 -15 27.2 -14.4 37.1 -5.7 l4.8 4.3 -1.8 4.7 c-1 2.7 -5.5 11.6 -10 19.8 -4.6 8.3 -9.6 17.4 -11.1 20.4 -4.4 8.2 -6.6 9.4 -17.6 9.6 -11.8 0.1 -16.6 1.5 -22.5 6.7 -10.1 8.7 -72.3 66.2 -72.3 66.9 0 0.4 2.8 3.7 6.3 7.4 l6.2 6.8 -16.5 16.1 c-44.3 43.2 -50 47.1 -65.1 44.6z"/>
  <path d="M347.5 363.1 c-5.3 -2.4 -22.1 -17.7 -62.3 -56.4 l-10.4 -10 4.3 -4.3 c2.4 -2.4 4.7 -4.4 5.2 -4.4 1.2 0 11.8 9.5 41 37 12.6 11.8 24.2 22.1 25.8 22.9 3.6 1.8 7.4 0.4 9.1 -3.4 1.4 -3.2 2 -2.6 -37 -39.2 l-29.2 -27.4 3.7 -4.4 c4 -4.7 5.8 -5 9.8 -1.6 3.2 2.7 54.4 50.3 60.6 56.2 6.9 6.7 9.3 11 9.2 17 -0.2 14 -16.7 24 -29.8 18z"/>
  <path d="M15.2 173.8 l0.3 -120.3 2.3 -5.6 c4.5 -11.1 11 -17.6 22.1 -22.1 l5.6 -2.3 74.8 -0.3 c45 -0.2 78.3 0.1 83.6 0.7 14.4 1.6 23.3 7.3 28.4 18.3 4.7 10.1 5.2 14.5 5 40.8 l-0.2 24.5 -11.8 11.5 -11.8 11.4 -0.5 -37.4 c-0.4 -27.9 -0.8 -38.1 -1.8 -39.7 -3.1 -5.5 -0.5 -5.4 -86.2 -5.1 l-79 0.3 -2.7 2.8 -2.8 2.7 -0.3 108.5 -0.2 108.5 63.7 0.2 63.7 0.3 6.3 10.5 c3.4 5.8 6.3 10.8 6.3 11.3 0 0.4 -37.1 0.7 -82.5 0.7 l-82.6 0 0.3 -120.2z"/>
  <path d="M234.8 259.4 c-8.2 -7.4 -13.5 -9.3 -28.2 -10.4 -15 -1 -23.2 -3.4 -31.9 -9.4 -7.3 -5 -13.9 -14.1 -16.3 -22.3 -1.6 -5.6 -1.6 -18.5 0 -21.1 0.5 -0.8 3.8 1.5 9.4 6.5 4.8 4.1 10.5 8.4 12.7 9.4 5.3 2.4 11.9 2.4 17.1 -0.2 5.1 -2.4 14.9 -12 17.5 -17.1 3.9 -7.7 2.2 -11.7 -10.4 -24.5 -5 -5.1 -8.7 -9.6 -8.3 -10 0.4 -0.4 5.6 -0.8 11.4 -0.7 8.7 0 11.8 0.4 16.4 2.3 8.5 3.3 14.7 8 19.9 14.8 6.2 8.2 8.9 16.4 9.3 29 0.5 12.3 1.9 15.9 9.6 23.9 3.3 3.4 6 6.9 6 7.7 0 1.6 -7 7.7 -8.8 7.7 -0.6 0 -3.7 -2.4 -6.9 -5.3 -3.2 -3 -6.8 -5.9 -8 -6.5 -2.8 -1.6 -8.6 -1.5 -10.1 0 -3.3 3.3 0.1 8.1 11.5 15.7 l5.1 3.5 -4.6 5.7 c-2.6 3.2 -5.2 5.8 -5.9 5.8 -0.7 0.1 -3.6 -2 -6.5 -4.5z"/>
  <path d="M65 233 l0 -12 24 0 24 0 0 12 0 12 -24 0 -24 0 0 -12z"/>
  <path d="M65 183.5 l0 -11.5 24 0 24 0 0 11.5 0 11.5 -24 0 -24 0 0 -11.5z"/>
  <path d="M65 134.5 l0 -11.5 24 0 24 0 0 11.5 0 11.5 -24 0 -24 0 0 -11.5z"/>
  <path d="M139 133.5 l0 -11.5 24.5 0 24.5 0 0 11.5 0 11.5 -24.5 0 -24.5 0 0 -11.5z"/>
  <path d="M65 85 l0 -12 24 0 24 0 0 12 0 12 -24 0 -24 0 0 -12z"/>
  <path d="M139 85 l0 -12 24.5 0 24.5 0 0 12 0 12 -24.5 0 -24.5 0 0 -12z"/>
 </g>
</svg>