<svg version="1.0" xmlns="http://www.w3.org/2000/svg" width="441px" height="471px" viewBox="0 0 441 471" preserveAspectRatio="xMidYMid meet">
 <g fill="#ffffff">
  <path d="M153.7 356.5 c-2 -0.7 -4.3 -1.7 -5 -2.2 -23.2 -17.4 -26.8 -23 -21.4 -33.4 2.3 -4.4 52.3 -64.9 53.6 -64.9 0.7 0 9.8 10.4 27 31 3.9 4.6 7.1 9.2 7.1 10.2 0 2.4 -45 55.5 -49.4 58.2 -3.3 2.1 -7.8 2.5 -11.9 1.1z"/>
  <path d="M273.9 350 c-2.1 -1.1 -5.2 -3.4 -7.1 -5.2 -3.8 -3.7 -33.9 -39.2 -88.2 -104.1 -21 -25.1 -36.8 -43.2 -38.3 -43.8 -1.6 -0.6 -5.3 -0.5 -10.8 0.3 -14.9 2.1 -28.7 -1.3 -42.4 -10.6 -12.2 -8.3 -21.8 -22.3 -25.2 -36.6 -1.3 -5.8 -1.4 -22.3 -0.2 -27.7 0.8 -3.2 0.8 -3.1 18 17.5 23.8 28.6 24.4 29.2 29.7 29.2 6.6 0 30.1 -4.6 33 -6.5 1.4 -0.9 3.2 -3.5 4 -5.8 0.9 -2.3 3.4 -9 5.6 -15 2.2 -5.9 4 -12.2 4 -14.1 0 -3.9 -0.9 -5.1 -21.8 -29.8 -7.7 -9.1 -14.8 -17.7 -15.7 -19.1 -1.8 -2.8 -1.3 -4.7 1.2 -4.7 4.1 0 26.7 6.5 33.2 9.5 12.3 5.9 22.2 17.7 27.9 33.7 2.2 6.2 2.6 9 2.6 18.8 0 10.1 -0.3 12.4 -2.7 19.3 -2.8 7.7 -2.8 7.8 -1 11.2 1 1.9 14.4 18.2 29.8 36.2 24.5 28.7 60.7 71.9 86 102.6 13.2 16 14.9 21.2 10.1 31.2 -6 12.6 -21.1 19.1 -31.7 13.5z m14.2 -11.3 c10.5 -7.1 10.5 -20.3 0 -25.7 -7.3 -3.7 -14.2 -1.8 -19.5 5.3 -2.7 3.7 -2.8 12 -0.1 16.1 4.4 6.6 13.3 8.6 19.6 4.3z"/>
  <path d="M245.4 233.3 c-5.9 -7 -13.2 -15.6 -16.1 -19.1 -3 -3.5 -5.3 -7.2 -5.3 -8.5 0 -1.4 4.2 -7.1 11.2 -15.2 17.3 -20.3 27.4 -32.7 29.2 -36.2 4.1 -8.1 1.4 -13.3 -15.2 -28.3 -11.8 -10.7 -14.2 -13.9 -14.2 -19 0 -4.4 2.2 -8.2 10.3 -18 13.7 -16.6 17.7 -20 23.6 -20 6.7 0 6.1 -0.4 53.8 39.8 17.2 14.5 33.1 28.7 35.4 31.5 6.8 8.4 9.3 15.3 13.7 37.7 3.6 18 3.9 21.2 3.1 26.4 -1.2 7 -3.1 11 -6.4 13.2 -4.8 3.1 -9 0.8 -29.2 -15.8 -18.6 -15.4 -24.2 -17.3 -32.4 -11.2 -1.8 1.3 -13.2 14.2 -25.3 28.6 -12.2 14.5 -22.9 26.4 -23.8 26.6 -1 0.2 -5.5 -4.3 -12.4 -12.5z"/>
 </g>
</svg>