<svg version="1.0" xmlns="http://www.w3.org/2000/svg" width="411px" height="457px" viewBox="0 0 411 457" preserveAspectRatio="xMidYMid meet">
 <g fill="#ffffff">
  <path d="M90.3 356.1 c-2.5 -1.2 -4.9 -3.2 -6 -5.3 -1.7 -3.1 -1.8 -9.6 -1.8 -134.3 0 -129.8 0 -131 2 -134.5 1.2 -2 3.8 -4.4 6 -5.5 3.9 -1.9 6.4 -2 100 -2 76.4 -0.1 97 0.2 100.7 1.2 9.1 2.6 13.3 11.1 10.9 22.2 -2.5 11.9 -10.8 27.1 -20.1 37.1 l-5.1 5.5 0.5 -11 c0.3 -6 0.9 -17 1.2 -24.2 l0.7 -13.3 -88.7 0 -88.6 0 0 124.5 0 124.5 89.9 0 89.9 0 1.2 -8.7 c5 -37 7.6 -49.3 10.4 -49.3 0.7 0 2.8 0.3 4.5 0.6 l3.2 0.7 -0.3 31.8 -0.3 31.7 -2.5 2.8 c-1.4 1.4 -4.5 3.6 -7 4.8 -4.5 2.1 -5.1 2.1 -100.5 2.4 -93.1 0.2 -96.1 0.2 -100.2 -1.7z"/>
  <path d="M133.8 301.3 c5 -5.4 14.4 -15.4 20.9 -22.2 10.8 -11.4 12.1 -12.4 14.6 -11.7 2.6 0.6 2.7 0.8 2.7 8.4 0 6.1 0.5 8.7 2.2 12.2 4 7.9 8.1 9.4 31.3 11.9 12.4 1.3 14.5 2.4 14.5 7.3 l0 3.8 -47.6 0 -47.6 0 9 -9.7z"/>
  <path d="M229.2 305.2 c-2.9 -0.3 -3.3 -0.7 -2.8 -2.5 0.2 -1.2 2.5 -11.5 5 -22.8 9.5 -43 13.1 -51.2 48.8 -111.4 9.1 -15.4 19.6 -33.4 23.2 -40 11.9 -21.3 18.8 -25.6 33.2 -20.7 8 2.8 20.4 11 21.9 14.5 1.9 4.6 0.4 8.3 -11 27.2 -5.6 9.4 -16.4 28 -24 41.5 -26.4 47.1 -38.6 66 -50.9 78.8 -7.3 7.7 -36.7 34.1 -39.1 35.3 -0.5 0.2 -2.5 0.3 -4.3 0.1z"/>
  <path d="M142.3 248.3 c-3.4 -0.7 -7.1 -4.7 -8.3 -9.3 -1.5 -5.5 -1.1 -7 2.7 -9.6 3 -2 30.3 -14.4 31.8 -14.4 0.4 0 8.3 4.6 17.6 10.2 l17 10.1 -3.2 1.4 c-14.8 6.2 -22.7 8.4 -36.6 10.3 -14.7 2 -16.8 2.1 -21 1.3z"/>
  <path d="M150.7 199 c-6.8 -0.7 -6.9 -0.8 -13 -6.8 l-6.1 -6.1 4.4 -4.8 c7.8 -8.5 6.3 -8.1 36.5 -8.9 14.9 -0.4 36 -0.4 47 0 l20 0.8 6.7 7 6.7 7 -5.7 5 c-3.1 2.8 -6.8 5.5 -8.2 6.1 -2.8 1.2 -76.7 1.7 -88.3 0.7z"/>
  <path d="M141.8 143.1 c-4.7 -0.5 -6 -1.1 -7.9 -3.5 l-2.3 -2.9 4.9 -4.4 c8.8 -8.1 6.4 -7.7 49 -7.8 20.9 -0.1 42 0.2 47 0.6 l9 0.6 5.8 6.4 5.8 6.4 -4.2 1.9 c-2.8 1.2 -8.3 2.1 -16.8 2.7 -13.8 0.9 -81.1 0.9 -90.3 0z"/>
 </g>
</svg>