<?xml version="1.0" encoding="utf-8"?>
<!DOCTYPE svg PUBLIC "-//W3C//DTD SVG 20010904//EN" "http://www.w3.org/TR/2001/REC-SVG-20010904/DTD/svg10.dtd">
<svg version="1.0" xmlns="http://www.w3.org/2000/svg" width="400px" height="400px" viewBox="0 0 400 400" preserveAspectRatio="xMidYMid meet">
 <g fill="#000000">
  <path d="M0 200 l0 -200 200 0 200 0 0 200 0 200 -200 0 -200 0 0 -200z m334.6 170.7 c19.9 -10 37.2 -18.9 38.5 -19.8 l2.4 -1.6 -4 -8.4 c-3.5 -7.4 -4 -9.4 -4.3 -17.4 -0.2 -5 0.1 -12.2 0.7 -16 1.4 -9.3 0.6 -12.3 -7.4 -26.6 -3.7 -6.7 -9.3 -17.8 -12.5 -24.7 -8.6 -18.8 -14.1 -24.2 -24.9 -24.2 l-5.1 0 0 -91.5 c0 -75.3 -0.2 -92.1 -1.4 -94.8 -1.6 -3.7 -5.1 -7.2 -8.3 -8.2 l-2.3 -0.6 -0.2 101.3 c-0.3 89.1 -0.5 101.3 -1.8 101.5 -7.1 0.9 -8.9 1.6 -12.8 5.4 -4.3 4 -4.4 4 -11.5 3.8 -7.2 -0.3 -10.2 0.6 -12.7 3.5 -0.7 0.9 -2.8 1.6 -4.6 1.6 -3.4 0 -3.4 -0.1 -10.9 -15 -4.4 -8.7 -7.5 -16.2 -7.5 -18 0 -3 0 -3 5.8 -3 3.1 0 7.4 -0.5 9.4 -1 4.7 -1.3 9.8 -7.1 9.8 -11 0 -3.9 -5.1 -9.7 -9.8 -11 -2.5 -0.8 -34.8 -1 -101.8 -0.8 l-98.1 0.3 -3.5 2.7 c-1.9 1.5 -4.1 4.1 -4.8 5.9 -1.2 2.9 -1.2 3.6 0.7 6.8 1.2 2.2 3.7 4.5 6.4 5.9 l4.3 2.2 71.6 0 71.6 0 10.2 20.5 c6 12.1 10.2 21.8 10.2 23.5 l0 3 -96.7 0.2 c-53.3 0 -95.4 0.3 -93.8 0.5 2.3 0.3 3.5 1.3 5 4 1.1 2 3.3 4.6 4.8 5.7 2.8 2.1 3.4 2.1 96.8 2.4 l93.9 0.2 3.5 7 c2.5 4.9 3.5 8.3 3.5 11.5 0 5.3 -0.1 5.3 -12.3 3 -15.3 -2.9 -23.1 -1.4 -29.4 5.9 -4 4.5 -4.9 7.7 -3.2 11.7 1.8 4.5 8 8.5 17.7 11.5 4.8 1.4 12.1 4.4 16.4 6.5 9.6 4.8 34.8 19.2 40.4 23 7.2 4.9 13.4 12.1 17.1 19.9 4 8.1 6 11 7.7 11 0.6 0 17.4 -8.3 37.2 -18.3z m-312.9 -283.9 c-0.1 -31 -0.2 -5.9 -0.2 55.7 0 61.6 0.1 86.9 0.2 56.3 0.2 -30.6 0.2 -81 0 -112z m240.3 63.7 c3.6 -1.8 7 -6.6 7 -9.7 0 -3.6 -3.4 -8.3 -7.3 -10.1 -3.2 -1.6 -12.1 -1.7 -102.4 -1.7 -96.8 0 -98.9 0 -102.1 2 -4.3 2.6 -7.4 7.8 -6.7 11 0.7 2.9 5.1 7.8 8 9 1.1 0.5 46.7 0.9 101.3 0.9 85.9 0.1 99.7 -0.1 102.2 -1.4z m-0.4 -65.1 c3.9 -1.9 7.4 -7 7.4 -10.9 0 -3.7 -5.5 -9 -10.8 -10.4 -2.9 -0.8 -32.1 -1.1 -100.9 -0.9 l-96.8 0.3 -3.6 2.3 c-4.9 3 -7.5 8.4 -5.9 12.2 1.4 3.4 4.6 6.5 8 7.9 1.6 0.6 38 1 100.8 1 88.4 0.1 98.7 -0.1 101.8 -1.5z m-32.3 -66.1 c-35.8 -0.2 -94.8 -0.2 -131 0 -36.2 0.1 -6.9 0.2 65.2 0.2 72.1 0 101.7 -0.1 65.8 -0.2z"/>
  <path d="M291.4 374.3 c-4.8 -10 -11.6 -16.8 -25.8 -25.7 -14.1 -8.8 -20.2 -11.8 -42.5 -21 -10.2 -4.2 -18.9 -8 -19.4 -8.5 -1.3 -1.3 -2.1 -9.4 -1.3 -12.6 1.6 -6.4 13.3 -7.1 33.6 -2 14 3.5 18 4.1 18 2.8 0 -0.5 -9.7 -20.3 -21.6 -44.2 -20.8 -41.7 -21.6 -43.5 -21.2 -48.1 0.3 -2.7 1.2 -6 2.2 -7.4 1.4 -2.3 2.3 -2.6 7.2 -2.6 9.5 0 9.3 -0.3 26.4 33 l15.5 30.1 1 -5.5 c0.6 -3 1.9 -6.4 2.9 -7.5 2.7 -3 9.8 -2.8 16.2 0.4 2.7 1.4 5 2.5 5.1 2.5 0.1 0 0.9 -2.5 1.7 -5.5 2 -6.7 4.4 -8.5 11.2 -8.5 4.2 0 5.9 0.5 8.4 2.7 3.1 2.6 3.3 2.6 4.6 0.8 0.8 -1 1.4 -2.4 1.4 -3.1 0 -0.6 1.3 -2.6 2.9 -4.3 2.6 -2.8 3.5 -3.1 8.8 -3.1 4.9 0 6.3 0.4 8.1 2.3 1.2 1.3 7.5 12.9 14.1 25.8 13.6 26.9 13.9 28.2 12 46.7 -1 10.6 -1 12.5 0.6 17.1 0.9 2.8 2.8 6.5 4.2 8.1 1.8 2.2 2.3 3.9 2.1 6.6 l-0.3 3.6 -32.5 17.4 c-25.2 13.5 -33.3 17.4 -36.2 17.4 -3.7 0 -3.8 -0.1 -7.4 -7.7z"/>
 </g>
 <g fill="#ffffff">
  <path d="M292.4 390.8 c-1.1 -1.3 -3.7 -5.7 -5.7 -9.8 -3.7 -7.8 -9.9 -15 -17.1 -19.9 -5.6 -3.8 -30.8 -18.2 -40.4 -23 -4.3 -2.2 -11.2 -4.9 -15.2 -6.1 -14.6 -4.3 -20 -9.3 -20 -18.3 0 -7.7 4.4 -13.8 12.5 -17.3 4.8 -2.1 15.7 -2.2 26.3 -0.1 8.7 1.7 8.7 1.6 3.7 -8.3 l-3.5 -7 -93.9 -0.2 c-93.4 -0.3 -94 -0.3 -96.8 -2.4 -1.5 -1.1 -3.7 -3.7 -4.8 -5.7 -1.4 -2.6 -2.7 -3.7 -4.3 -3.7 -4 0 -8.9 -2.7 -11.8 -6.6 l-2.9 -3.7 -0.2 -115.1 -0.3 -115.1 2.3 -4 c1.2 -2.2 4 -5 6.2 -6.2 l4 -2.3 134.2 0.3 c133.7 0.2 134.2 0.2 136.9 2.3 4.3 3.1 6.5 6.7 7.1 11.2 0.4 3.1 1.1 4.3 2.7 4.8 3.1 0.9 6.7 4.5 8.2 8.1 1.2 2.7 1.4 19.5 1.4 94.8 l0 91.5 5.1 0 c11 0 16.1 5.2 25.8 26 3.7 8 9.5 19.4 12.9 25.3 7.1 12.7 7.9 16.7 6.2 29.7 -1.8 12.6 -0.9 18.5 4.1 29 4.8 10.1 4.7 12.7 -0.3 15.8 -9 5.4 -75.9 38.2 -78 38.2 -1.3 0 -3.3 -1 -4.4 -2.2z m40 -29.4 c17.1 -9.1 31.5 -17 32 -17.4 0.5 -0.5 -0.2 -2.2 -1.7 -3.9 -4.8 -5.7 -6.1 -12 -5.1 -25 1.5 -21.3 1.9 -19.7 -11.3 -46 -12.9 -25.7 -15.1 -29.1 -19.2 -29.1 -4 0 -6.5 2.3 -9.5 8.5 -3.1 6.6 -4.4 6.8 -10.5 2 -7.2 -5.8 -12 -4.1 -14.7 5 -1.8 6.4 -3.9 8 -7.5 6 -5.2 -3.1 -10.5 -5.5 -12 -5.5 -2.8 0 -5.7 4.3 -6.4 9.5 -1.8 13.6 -4.2 11 -22.5 -24.6 -16.1 -31.3 -17.3 -32.9 -23.4 -32.9 -2.6 0 -4.8 2.4 -6.1 6.8 -0.5 1.7 4.5 12.5 20.9 45.5 11.9 23.7 21.9 44.6 22.2 46.4 0.6 2.8 0.3 3.4 -2 4.4 -2.2 1.1 -5.2 0.6 -19.9 -2.9 -18.9 -4.6 -21.2 -4.9 -26.2 -2.8 -3.9 1.6 -5.2 4.8 -3.6 8.7 0.8 2.1 3.3 3.6 13.8 7.9 24.2 9.8 31.8 13.4 41.8 19.3 21.5 12.8 27.2 18.1 33.1 30.5 2.7 5.6 3.9 7.2 5.1 6.8 0.8 -0.4 15.6 -8.1 32.7 -17.2z m-119.5 -119.6 l-10.1 -20.3 -72.6 -0.5 c-80.9 -0.6 -76.7 -0.2 -81.1 -7.3 -4.5 -7.2 -1.7 -16.8 5.9 -20.9 3.4 -1.7 7.6 -1.8 105.7 -1.6 101.4 0.3 102.2 0.3 104.9 2.4 1.5 1.1 3.7 3.3 4.8 4.8 2.9 3.8 2.9 11.4 0 15.2 -4 5.4 -6.8 6.7 -15.3 7.2 l-8 0.5 7.5 14.9 7.5 15 2.2 -2 c4.2 -3.7 6.6 -4.4 13.2 -3.7 l6.3 0.6 4.4 -4 c3.9 -3.8 5.7 -4.5 12.8 -5.4 1.3 -0.2 1.5 -12.3 1.8 -101.2 0.1 -55.6 0 -102.5 -0.3 -104.4 -0.4 -1.8 -1.7 -4.4 -3 -5.7 l-2.4 -2.4 -133.4 0 -133.4 0 -2.7 2.6 -2.6 2.7 0 114.4 0 114.4 2.6 2.4 2.7 2.5 96.3 0 96.4 0 -10.1 -20.2z"/>
  <path d="M55.5 154 c-1.1 -0.4 -3.3 -2.2 -4.9 -3.9 -2.3 -2.4 -3 -4.2 -3.3 -8.3 -0.5 -6.2 1.7 -10.6 6.9 -13.8 3.2 -2 5.3 -2 105.3 -2 115.5 0 106.8 -0.6 111.3 8.1 2.7 5.1 2.4 10.4 -0.9 15.1 -4.4 6.1 1.9 5.8 -110.1 5.7 -56.3 0 -103.2 -0.4 -104.3 -0.9z"/>
  <path d="M55 88.2 c-10.1 -5 -10.7 -19.5 -1.1 -25.4 l3.6 -2.3 99.8 -0.3 c71 -0.2 101 0.1 103.9 0.9 5.7 1.5 10.4 6.4 11.3 11.7 0.9 5.7 -2.4 12.6 -7.5 15.3 -3.3 1.8 -7.8 1.9 -105 1.9 -94.6 0 -101.7 -0.1 -105 -1.8z"/>
 </g>
</svg>