<svg version="1.0" xmlns="http://www.w3.org/2000/svg" width="422px" height="465px" viewBox="0 0 4220 4650" preserveAspectRatio="xMidYMid meet">
<g id="layer101" fill="#ffffff" stroke="none">
 <path d="M797 3690 c-97 -31 -167 -86 -210 -165 l-22 -40 -3 -1204 c-3 -1347 -7 -1258 69 -1345 46 -52 138 -101 218 -116 33 -6 369 -10 882 -10 l828 0 3 29 c3 25 66 81 448 396 245 202 453 370 462 372 25 7 42 56 29 81 -8 15 -11 287 -11 899 l0 878 -24 50 c-29 64 -110 137 -184 167 l-57 23 -1185 2 c-1133 2 -1188 1 -1243 -17z m2462 -130 c24 -14 58 -42 75 -63 l31 -39 3 -869 2 -869 -444 0 c-391 0 -446 -2 -460 -16 -14 -13 -16 -63 -16 -395 l0 -380 -802 3 -803 3 -55 30 c-30 17 -65 45 -77 64 l-23 34 0 1195 c0 1191 0 1195 21 1228 25 41 68 73 122 90 34 10 271 12 1212 11 l1170 -2 44 -25z m-21 -1970 c-3 -10 -644 -540 -653 -540 -3 0 -5 124 -5 275 l0 275 331 0 c205 0 329 -4 327 -10z"/>
 </g>

</svg>