<?xml version="1.0" encoding="utf-8"?>
<!DOCTYPE svg PUBLIC "-//W3C//DTD SVG 20010904//EN" "http://www.w3.org/TR/2001/REC-SVG-20010904/DTD/svg10.dtd">
<svg version="1.0" xmlns="http://www.w3.org/2000/svg" width="400px" height="400px" viewBox="0 0 400 400" preserveAspectRatio="xMidYMid meet">
 <g fill="#ffffff">
  <path d="M93 361.9 c-25.1 -0.8 -31.8 -2.1 -44.1 -8.5 -22 -11.6 -37.9 -39.3 -38.1 -66.5 -0.1 -12.2 1.3 -18.1 7.2 -30.4 11.3 -23.5 34.6 -39.7 61.1 -42.5 5.2 -0.5 20.8 -1 34.7 -1 28 0 28.4 0.1 34.1 6.5 6.4 7.4 2.9 16.4 -7.2 18.4 -2.9 0.5 -18.2 1 -34.2 1 -26.6 -0.1 -29.5 0.1 -35.6 2 -22.2 7 -36.4 27.8 -34.5 50.6 1.8 22.2 15.6 38.5 37.3 44 5.3 1.4 13.7 1.5 59.5 1.3 53.1 -0.3 53.3 -0.3 59 -2.6 18.8 -7.6 29.3 -21.4 32 -41.8 0.6 -4.6 1.9 -9.7 2.9 -11.4 4 -6.5 13.3 -7.4 18.9 -1.9 3.6 3.7 4.5 9 3 18.4 -4.7 30.1 -25.9 54.3 -54.5 62 -4.4 1.2 -13.5 1.9 -34 2.5 -31.2 1 -35.4 1 -67.5 -0.1z"/>
  <path d="M248.5 360.2 c-6.5 -4.1 -8.2 -10.7 -4.4 -16.9 3.9 -6.2 4.2 -6.3 41.6 -6.3 36.7 0 43.1 -0.7 52.9 -5.5 10.8 -5.3 19.6 -15.8 24.2 -28.8 2.1 -6.2 2.4 -8.4 2 -17.7 -0.3 -10 -0.6 -11.1 -4.1 -18.4 -6.3 -12.5 -15.7 -20.7 -29.7 -25.8 -6.4 -2.2 -7.1 -2.3 -57.5 -2.6 -57.7 -0.4 -63.2 0 -74.3 5.3 -15.7 7.4 -24.9 20.3 -27.6 38.8 -1.7 10.7 -2.4 12.6 -6.2 15.6 -5.4 4.2 -14.9 1.7 -18 -4.7 -1.3 -2.8 -1.5 -5.1 -1 -11.1 2.5 -30.4 22.2 -55.9 50.1 -64.7 6.1 -2 11.7 -2.8 24 -3.6 21.1 -1.3 107.2 -0.4 114 1.2 2.8 0.6 9.2 3.2 14.4 5.7 7.7 3.7 10.8 5.9 17 12.2 17.8 17.7 26.7 40.9 24 62.6 -1.2 9.6 -5.4 22.4 -10 30.3 -5.5 9.3 -19 22.1 -28.6 27 -15.6 8.1 -18.6 8.5 -61.8 8.9 -36 0.4 -38.2 0.3 -41 -1.5z"/>
  <path d="M295.4 188.9 c-13.5 -1.3 -23.6 -6.2 -32.2 -15.3 -10.7 -11.5 -15.4 -25 -15.4 -44.6 -0.1 -19.8 4.7 -33.1 15.9 -45.1 11.3 -12 23.3 -16.4 42.3 -15.7 12.7 0.5 16.9 1.8 25.9 7.7 9.1 5.9 15.9 17.2 18.6 30.9 l0.7 3.2 -15.5 0 -15.5 0 -0.6 -2.4 c-0.8 -3.2 -5.2 -8.3 -8.7 -10.1 -1.6 -0.9 -5.5 -1.5 -9.1 -1.5 -14.9 0.1 -22.2 8.8 -23.5 28 -1.1 16.9 3.3 30.3 11.4 34.8 11.4 6.3 24.9 2.8 30.4 -7.9 l1.9 -3.9 15 0 c8.3 0 15 0.3 15 0.6 0 0.3 -0.7 3.3 -1.6 6.7 -6.5 25.3 -26 37.5 -55 34.6z"/>
  <path d="M47 128.5 l0 -58.5 23.3 0 c32.3 0.1 44.2 2.5 55 11.4 15.2 12.3 16.7 39.6 3.1 55.5 -7.3 8.4 -24.3 14.1 -42.5 14.1 l-8.9 0 0 18 0 18 -15 0 -15 0 0 -58.5z m49.2 -3.7 c7.8 -2.3 12.3 -10.9 9.9 -18.8 -2.2 -7.4 -9.9 -11 -23.1 -11 l-6 0 0 15.5 0 15.5 7.6 0 c4.2 0 9.4 -0.5 11.6 -1.2z"/>
  <path d="M156 128.5 l0 -58.5 15 0 15 0 0 46 0 46 25.5 0 25.5 0 0 12.5 0 12.5 -40.5 0 -40.5 0 0 -58.5z"/>
 </g>
</svg>