<svg version="1.0" xmlns="http://www.w3.org/2000/svg" width="624px" height="505px" viewBox="0 0 6240 5050" preserveAspectRatio="xMidYMid meet">
<g id="layer101" fill="#231815" stroke="none">
 <path d="M162 4218 l3 -373 108 -3 107 -3 0 -1399 0 -1400 -70 0 -70 0 2 -378 3 -377 373 -3 372 -2 0 109 c0 60 3 116 6 125 6 14 132 16 1330 16 l1323 0 3 -123 3 -122 375 0 375 0 5 360 5 360 28 65 c16 36 35 79 42 95 8 17 55 127 105 245 50 118 127 298 170 400 43 102 120 282 170 400 95 224 163 384 186 435 7 17 54 127 104 245 125 296 140 331 155 365 7 17 25 59 40 95 15 36 35 83 45 105 10 22 50 118 90 212 l73 172 146 3 146 3 0 370 0 370 -377 3 -378 2 0 -105 0 -105 -2120 0 -2120 0 0 105 0 105 -380 0 -380 0 2 -372z m5000 -265 l3 -108 53 -3 c28 -2 52 -6 52 -9 0 -4 -23 -61 -51 -127 -28 -67 -65 -152 -81 -191 -16 -38 -33 -79 -38 -90 -9 -19 -178 -416 -360 -845 -137 -323 -260 -613 -275 -645 -7 -16 -25 -59 -40 -95 -15 -36 -33 -78 -40 -95 -8 -16 -55 -127 -105 -245 -171 -405 -178 -420 -189 -440 -7 -12 -45 -15 -225 -18 l-216 -2 0 -100 0 -100 -1327 2 -1328 3 -5 95 -5 95 -142 3 -143 3 0 1399 0 1400 110 0 110 0 0 110 0 110 2120 0 2119 0 3 -107z"/>
 </g>

</svg>