<?xml version="1.0" encoding="utf-8"?>
<!DOCTYPE svg PUBLIC "-//W3C//DTD SVG 20010904//EN" "http://www.w3.org/TR/2001/REC-SVG-20010904/DTD/svg10.dtd">
<svg version="1.0" xmlns="http://www.w3.org/2000/svg" width="400px" height="400px" viewBox="0 0 400 400" preserveAspectRatio="xMidYMid meet">
 <g fill="#000000">
  <path d="M0 200 l0 -200 200 0 200 0 0 200 0 200 -200 0 -200 0 0 -200z m324.5 162.5 c23.8 -6.9 42.3 -22.5 53.5 -45 15.2 -30.6 10.8 -61.3 -12.9 -89.3 -5.9 -7.1 -19.8 -17.4 -28.8 -21.4 l-7.3 -3.3 0 -20.6 0 -20.7 21.8 -0.4 c17.7 -0.3 22.4 -0.7 25.7 -2.2 5 -2.1 8.4 -5.2 10 -9.1 1.1 -2.5 1.1 -3.5 -0.5 -6.6 -2.6 -5 -8.2 -9.7 -16 -13.1 -26.1 -11.8 -31.2 -15.2 -35.6 -24 -3.8 -7.4 -5.4 -16 -6 -32.3 -0.7 -16.2 -2.1 -21.6 -6.6 -24.4 -1.4 -0.9 -8.9 -1.9 -19.8 -2.8 -28 -2.3 -42.5 0.3 -46.9 8.4 -2.2 4.2 -6.3 3 -21.5 -6.1 -7.8 -4.7 -16.6 -9.6 -19.6 -10.9 -6.9 -3.1 -16.3 -5.1 -19.7 -4.2 -4.1 1 -75.6 42.2 -139.3 80.2 -34.1 20.4 -38.7 23.9 -40.9 31.3 -1.1 3.6 -1 4.5 0.6 7.2 3.5 5.9 7.8 7.2 26.8 7.9 9.4 0.4 19.6 0.7 22.8 0.8 l5.7 0.1 0 80.8 c0 52.4 0.4 82 1 84.4 1.5 5.3 5.3 9.3 10.8 11.4 4.4 1.7 10.4 1.9 84.1 2.2 l79.5 0.3 3.2 2.9 c11.9 10.4 28 18.1 44.2 21 7.8 1.5 21.8 0.3 31.7 -2.5z"/>
  <path d="M267.3 310 c-16.1 -17.5 -17.3 -19.1 -17.3 -22.7 0 -3 0.9 -4.8 4.1 -8.5 3.6 -4.3 4.5 -4.8 8.2 -4.8 4 0 4.7 0.5 14.9 10.7 l10.8 10.7 26.3 -26.2 c30.9 -30.9 29.2 -30 39.5 -20.6 10.1 9.1 11.9 6.2 -28 46.1 -32.4 32.4 -34.5 34.3 -37.8 34.2 -3.2 -0.1 -4.8 -1.5 -20.7 -18.9z"/>
  <path d="M84 239.5 l0 -88.5 -25.9 0 c-28.7 0 -27.1 0.4 -27.1 -6.8 l0 -3.7 54.7 -32 c30 -17.6 66.1 -38.6 80.2 -46.7 l25.6 -14.8 6.5 0 c3.6 0 8.1 0.5 10.1 1 2 0.6 16.8 8.9 32.8 18.5 16.1 9.6 29.4 17.5 29.7 17.5 0.2 0 0.4 -4.6 0.4 -10.2 0 -16.3 -2.2 -14.8 21 -14.8 l19.8 0 0.6 6.3 c0.3 3.4 0.8 11.1 1.1 17 1.6 27.7 6.8 34.3 40.7 51.8 17.7 9.1 17.8 9.2 17.8 12.5 l0 3.4 -28.5 0 -28.5 0 0 24.5 0 24.5 -9.2 0 c-11.4 0 -20.1 1.8 -31.7 6.4 -4.9 2 -10.3 3.6 -12 3.6 l-3.1 0 0 -51 0 -51 -12 0 -12 0 0 4.6 c0 5.8 -2.3 10.8 -5.8 12.3 -3.6 1.7 -71.6 1.8 -75.3 0.1 -3.5 -1.6 -5.1 -4.6 -5.8 -11 l-0.6 -5.5 -11.1 -0.3 -11.1 -0.3 -0.7 3.2 c-0.3 1.7 -0.6 43.7 -0.6 93.3 0 83.8 0.1 90.3 1.8 93.5 0.9 1.9 3 4.4 4.5 5.5 2.8 2 4.2 2.1 48 2.4 l45.2 0.3 3.3 8.4 c1.7 4.5 3.2 9.7 3.2 11.4 l0 3.1 -73 0 -73 0 0 -88.5z m136.2 -129 c-0.5 -2.7 -0.4 -2.6 -6.8 -3.9 -5.4 -1.1 -5.8 -1.3 -7.1 -5.1 -0.7 -2.2 -2.5 -5 -3.9 -6.2 -2.2 -2 -3.6 -2.3 -11.7 -2.3 -5.1 0 -9.9 0.5 -10.7 1 -0.8 0.5 -2.2 3.3 -3 6.2 -1.7 5.7 -2.9 6.4 -11.2 6.7 -3.3 0.1 -3.8 0.4 -3.8 2.5 0 1.3 0.6 2.7 1.3 2.9 0.6 0.3 13.8 0.5 29.2 0.4 27.4 -0.2 28 -0.2 27.7 -2.2z"/>
  <path d="M137 214.6 l0 -80.3 22.1 -0.7 c28.3 -1 86.1 0.2 87.1 1.8 0.4 0.6 0.8 20.4 0.8 43.9 l0 42.9 -5.1 5.6 c-9.8 11.1 -17.2 25.2 -19.8 38.2 -0.6 3 -1.3 10.8 -1.7 17.3 l-0.6 11.7 -41.4 0 -41.4 0 0 -80.4z m44 37.9 c0 -2.5 0 -2.5 -9.5 -2.5 -9.5 0 -9.5 0 -9.5 2.5 0 2.5 0 2.5 9.5 2.5 9.5 0 9.5 0 9.5 -2.5z m19 -25 l0 -2.5 -19 0 -19 0 0 2.5 0 2.5 19 0 19 0 0 -2.5z m21 -23 l0 -2.5 -30 0 -30 0 0 2.5 0 2.5 30 0 30 0 0 -2.5z m0 -23 l0 -2.5 -29.7 0.2 -29.8 0.3 -0.3 2.3 -0.3 2.2 30 0 30.1 0 0 -2.5z m0 -23 l0 -2.5 -30 0 c-28.4 0 -30 0.1 -30 1.8 0 1 0.3 2.2 0.7 2.5 0.3 0.4 13.8 0.7 30 0.7 l29.3 0 0 -2.5z"/>
 </g>
 <g fill="#ffffff">
  <path d="M289.8 368 c-16.2 -2.9 -32.3 -10.6 -44.2 -21 l-3.2 -2.9 -79.5 -0.3 c-73.7 -0.3 -79.7 -0.5 -84.1 -2.2 -5.5 -2.1 -9.3 -6.1 -10.8 -11.4 -0.6 -2.4 -1 -32 -1 -84.4 l0 -80.8 -5.7 -0.1 c-38.2 -0.7 -45.5 -1.9 -49.4 -8.3 -3.6 -5.9 -1.8 -15.3 4 -21.6 4.5 -4.9 66.2 -41.9 145.1 -87 31.3 -18 32.4 -18.4 44.3 -16 7.9 1.5 17 5.8 32.7 15.4 11.4 6.9 12.6 7.4 13.7 5.8 4.2 -6.1 8.6 -8 21.8 -9.4 12.2 -1.4 47.4 0.9 51.3 3.3 4.5 2.8 5.9 8.2 6.6 24.4 0.6 16.3 2.2 24.9 6 32.3 4.4 8.8 9.5 12.2 35.6 24 7.8 3.5 13.4 8.1 16.1 13.3 4.3 8.5 0.5 17.1 -9.6 21.5 -3.3 1.5 -8 1.9 -25.7 2.2 l-21.8 0.4 0 17.7 0 17.6 7.3 3.3 c9 4 22.9 14.3 28.8 21.4 15.1 17.8 21.9 35.6 21.9 57.3 0 14.3 -2.5 25 -9 38 -14.7 29.5 -41.9 47 -74.5 48 -6.6 0.2 -14.1 0 -16.7 -0.5z m33 -76.3 l34.2 -34.2 -4.2 -4.1 c-2.4 -2.2 -5.3 -4.8 -6.6 -5.9 l-2.2 -1.8 -28.1 27.8 -28 27.8 -12.4 -12.3 c-8 -7.9 -12.8 -12.1 -13.8 -11.7 -0.8 0.3 -3.2 2.6 -5.3 5.2 -2.7 3.3 -3.5 5.1 -2.8 6 1.4 2.1 33.8 37.3 34.4 37.4 0.3 0.1 15.9 -15.3 34.8 -34.2z m-96 32.6 c-0.2 -0.5 -1.7 -4.3 -3.3 -8.5 l-3 -7.7 -45.2 -0.3 c-43.9 -0.3 -45.2 -0.4 -48 -2.4 -1.5 -1.1 -3.6 -3.6 -4.5 -5.5 -1.7 -3.2 -1.8 -9.8 -1.8 -96.5 0 -51.2 0.3 -94.6 0.6 -96.3 l0.7 -3.2 14.1 0.3 14.1 0.3 0.6 5.5 c0.7 6.3 2.3 9.4 5.7 11 3.5 1.6 66 1.5 69.5 -0.1 3.4 -1.5 5.7 -6.5 5.7 -12.3 l0 -4.6 15 0 15 0 0 51.1 c0 40.5 0.3 51 1.3 50.6 16.2 -7.2 26.4 -9.7 39.5 -9.7 l9.2 0 0 -24.5 0 -24.5 28.7 -0.2 28.7 -0.3 -18 -9.3 c-34.1 -17.6 -39.3 -24.2 -40.9 -51.9 -0.3 -5.9 -0.8 -13.6 -1.1 -17.1 l-0.6 -6.2 -16.8 0 -16.9 0 -0.7 3.6 c-0.4 2 -0.5 7.3 -0.2 11.8 1 15.7 4 16.3 -33.1 -6 -17.8 -10.6 -34 -19.8 -36 -20.4 -8 -2.2 -9.3 -1.7 -35.1 13.1 -24.4 14.1 -135.2 78.9 -135.8 79.4 -0.2 0.2 -0.1 1.3 0.3 2.4 0.6 2.1 1.2 2.1 26.6 2.1 l25.9 0 0 88.5 0 88.5 70.1 0 c38.5 0 69.9 -0.3 69.7 -0.7z m-9.7 -37.5 c0.2 -17.4 1.8 -26.7 6.4 -38 2.9 -7.1 9.8 -17.8 15.8 -24.4 l4.7 -5.2 0 -39.8 c0 -22 -0.4 -40.4 -0.8 -41 -1 -1.5 -55.3 -2.7 -82.2 -1.8 l-21 0.7 0 77.4 0 77.3 38.5 0 38.5 0 0.1 -5.2z"/>
  <path d="M160.3 115.3 c-0.8 -0.3 -1.3 -2.5 -1.3 -5.9 l0 -5.4 3.8 -0.1 c8.3 -0.3 9.5 -1 11.2 -6.7 0.8 -2.9 2.2 -5.7 3 -6.2 0.8 -0.5 7 -1 13.7 -1 11.2 0 12.4 0.2 14.7 2.3 1.4 1.2 3.2 4 3.9 6.2 1.3 3.8 1.7 4 7.1 5.1 3.1 0.6 6 1.4 6.3 1.8 0.4 0.3 0.7 2.8 0.7 5.4 l0.1 4.7 -31 0.2 c-17 0.1 -31.6 -0.1 -32.2 -0.4z"/>
  <path d="M159 252.5 l0 -5.5 12.5 0 12.5 0 0 5.5 0 5.5 -12.5 0 -12.5 0 0 -5.5z"/>
  <path d="M159 227.5 l0 -5.5 22 0 22 0 0 5.5 0 5.5 -22 0 -22 0 0 -5.5z"/>
  <path d="M158 204.5 l0 -5.5 33 0 33 0 0 5.5 0 5.5 -33 0 -33 0 0 -5.5z"/>
  <path d="M158.2 181.8 l0.3 -5.3 32.8 -0.3 32.7 -0.2 0 5.5 0 5.5 -33.1 0 -33 0 0.3 -5.2z"/>
  <path d="M158.7 163.3 c-0.4 -0.3 -0.7 -2.8 -0.7 -5.5 l0 -4.8 33 0 33 0 0 5.5 0 5.5 -32.3 0 c-17.8 0 -32.7 -0.3 -33 -0.7z"/>
 </g>
</svg>