<?xml version="1.0" encoding="utf-8"?>
<!DOCTYPE svg PUBLIC "-//W3C//DTD SVG 20010904//EN" "http://www.w3.org/TR/2001/REC-SVG-20010904/DTD/svg10.dtd">
<svg version="1.0" xmlns="http://www.w3.org/2000/svg" width="2048px" height="2048px" viewBox="0 0 2048 2048" preserveAspectRatio="xMidYMid meet">
 <g fill="#000000">
  <path d="M249 1768.5 l0 -30.5 30.5 0 30.5 0 0 30.5 0 30.5 -30.5 0 -30.5 0 0 -30.5z"/>
  <path d="M311 1768.5 l0 -30.5 30.5 0 30.5 0 0 30.5 0 30.5 -30.5 0 -30.5 0 0 -30.5z"/>
  <path d="M373 1768.5 l0 -30.5 30.5 0 30.5 0 0 30.5 0 30.5 -30.5 0 -30.5 0 0 -30.5z"/>
  <path d="M435 1768.5 l0 -30.5 30.5 0 30.5 0 0 30.5 0 30.5 -30.5 0 -30.5 0 0 -30.5z"/>
  <path d="M497 1768.5 l0 -30.5 30.5 0 30.5 0 0 30.5 0 30.5 -30.5 0 -30.5 0 0 -30.5z"/>
  <path d="M559 1768.5 l0 -30.5 30.5 0 30.5 0 0 30.5 0 30.5 -30.5 0 -30.5 0 0 -30.5z"/>
  <path d="M621 1768.5 l0 -30.5 30.5 0 30.5 0 0 30.5 0 30.5 -30.5 0 -30.5 0 0 -30.5z"/>
  <path d="M745 1768.5 l0 -30.5 30.5 0 30.5 0 0 30.5 0 30.5 -30.5 0 -30.5 0 0 -30.5z"/>
  <path d="M869 1768.5 l0 -30.5 30.5 0 30.5 0 0 30.5 0 30.5 -30.5 0 -30.5 0 0 -30.5z"/>
  <path d="M993 1768.5 l0 -30.5 31 0 31 0 0 30.5 0 30.5 -31 0 -31 0 0 -30.5z"/>
  <path d="M1118 1768.5 l0 -30.5 30.5 0 30.5 0 0 30.5 0 30.5 -30.5 0 -30.5 0 0 -30.5z"/>
  <path d="M1242 1768.5 l0 -30.5 30.5 0 30.5 0 0 30.5 0 30.5 -30.5 0 -30.5 0 0 -30.5z"/>
  <path d="M1366 1768.5 l0 -30.5 30.5 0 30.5 0 0 30.5 0 30.5 -30.5 0 -30.5 0 0 -30.5z"/>
  <path d="M1552 1768.5 l0 -30.5 30.5 0 30.5 0 0 30.5 0 30.5 -30.5 0 -30.5 0 0 -30.5z"/>
  <path d="M1738 1768.5 l0 -30.5 30.5 0 30.5 0 0 30.5 0 30.5 -30.5 0 -30.5 0 0 -30.5z"/>
  <path d="M249 1706.5 l0 -30.5 30.5 0 30.5 0 0 30.5 0 30.5 -30.5 0 -30.5 0 0 -30.5z"/>
  <path d="M621 1706.5 l0 -30.5 30.5 0 30.5 0 0 30.5 0 30.5 -30.5 0 -30.5 0 0 -30.5z"/>
  <path d="M807 1706.5 l0 -30.5 30.5 0 30.5 0 0 30.5 0 30.5 -30.5 0 -30.5 0 0 -30.5z"/>
  <path d="M931 1706.5 l0 -30.5 30.5 0 30.5 0 0 30.5 0 30.5 -30.5 0 -30.5 0 0 -30.5z"/>
  <path d="M993 1706.5 l0 -30.5 31 0 31 0 0 30.5 0 30.5 -31 0 -31 0 0 -30.5z"/>
  <path d="M1118 1706.5 l0 -30.5 30.5 0 30.5 0 0 30.5 0 30.5 -30.5 0 -30.5 0 0 -30.5z"/>
  <path d="M1242 1706.5 l0 -30.5 30.5 0 30.5 0 0 30.5 0 30.5 -30.5 0 -30.5 0 0 -30.5z"/>
  <path d="M1366 1706.5 l0 -30.5 30.5 0 30.5 0 0 30.5 0 30.5 -30.5 0 -30.5 0 0 -30.5z"/>
  <path d="M1428 1706.5 l0 -30.5 30.5 0 30.5 0 0 30.5 0 30.5 -30.5 0 -30.5 0 0 -30.5z"/>
  <path d="M1490 1706.5 l0 -30.5 30.5 0 30.5 0 0 30.5 0 30.5 -30.5 0 -30.5 0 0 -30.5z"/>
  <path d="M249 1644.5 l0 -30.5 30.5 0 30.5 0 0 30.5 0 30.5 -30.5 0 -30.5 0 0 -30.5z"/>
  <path d="M373 1644.5 l0 -30.5 30.5 0 30.5 0 0 30.5 0 30.5 -30.5 0 -30.5 0 0 -30.5z"/>
  <path d="M435 1644.5 l0 -30.5 30.5 0 30.5 0 0 30.5 0 30.5 -30.5 0 -30.5 0 0 -30.5z"/>
  <path d="M497 1644.5 l0 -30.5 30.5 0 30.5 0 0 30.5 0 30.5 -30.5 0 -30.5 0 0 -30.5z"/>
  <path d="M621 1644.5 l0 -30.5 30.5 0 30.5 0 0 30.5 0 30.5 -30.5 0 -30.5 0 0 -30.5z"/>
  <path d="M745 1644.5 l0 -30.5 30.5 0 30.5 0 0 30.5 0 30.5 -30.5 0 -30.5 0 0 -30.5z"/>
  <path d="M869 1644.5 l0 -30.5 30.5 0 30.5 0 0 30.5 0 30.5 -30.5 0 -30.5 0 0 -30.5z"/>
  <path d="M931 1644.5 l0 -30.5 30.5 0 30.5 0 0 30.5 0 30.5 -30.5 0 -30.5 0 0 -30.5z"/>
  <path d="M1180 1644.5 l0 -30.5 30.5 0 30.5 0 0 30.5 0 30.5 -30.5 0 -30.5 0 0 -30.5z"/>
  <path d="M1304 1644.5 l0 -30.5 30.5 0 30.5 0 0 30.5 0 30.5 -30.5 0 -30.5 0 0 -30.5z"/>
  <path d="M1490 1644.5 l0 -30.5 30.5 0 30.5 0 0 30.5 0 30.5 -30.5 0 -30.5 0 0 -30.5z"/>
  <path d="M1676 1644.5 l0 -30.5 30.5 0 30.5 0 0 30.5 0 30.5 -30.5 0 -30.5 0 0 -30.5z"/>
  <path d="M1738 1644.5 l0 -30.5 30.5 0 30.5 0 0 30.5 0 30.5 -30.5 0 -30.5 0 0 -30.5z"/>
  <path d="M249 1582.5 l0 -30.5 30.5 0 30.5 0 0 30.5 0 30.5 -30.5 0 -30.5 0 0 -30.5z"/>
  <path d="M373 1582.5 l0 -30.5 30.5 0 30.5 0 0 30.5 0 30.5 -30.5 0 -30.5 0 0 -30.5z"/>
  <path d="M435 1582.5 l0 -30.5 30.5 0 30.5 0 0 30.5 0 30.5 -30.5 0 -30.5 0 0 -30.5z"/>
  <path d="M497 1582.5 l0 -30.5 30.5 0 30.5 0 0 30.5 0 30.5 -30.5 0 -30.5 0 0 -30.5z"/>
  <path d="M621 1582.5 l0 -30.5 30.5 0 30.5 0 0 30.5 0 30.5 -30.5 0 -30.5 0 0 -30.5z"/>
  <path d="M869 1582.5 l0 -30.5 30.5 0 30.5 0 0 30.5 0 30.5 -30.5 0 -30.5 0 0 -30.5z"/>
  <path d="M1180 1582.5 l0 -30.5 30.5 0 30.5 0 0 30.5 0 30.5 -30.5 0 -30.5 0 0 -30.5z"/>
  <path d="M1242 1582.5 l0 -30.5 30.5 0 30.5 0 0 30.5 0 30.5 -30.5 0 -30.5 0 0 -30.5z"/>
  <path d="M1304 1582.5 l0 -30.5 30.5 0 30.5 0 0 30.5 0 30.5 -30.5 0 -30.5 0 0 -30.5z"/>
  <path d="M1428 1582.5 l0 -30.5 30.5 0 30.5 0 0 30.5 0 30.5 -30.5 0 -30.5 0 0 -30.5z"/>
  <path d="M1490 1582.5 l0 -30.5 30.5 0 30.5 0 0 30.5 0 30.5 -30.5 0 -30.5 0 0 -30.5z"/>
  <path d="M1552 1582.5 l0 -30.5 30.5 0 30.5 0 0 30.5 0 30.5 -30.5 0 -30.5 0 0 -30.5z"/>
  <path d="M1614 1582.5 l0 -30.5 30.5 0 30.5 0 0 30.5 0 30.5 -30.5 0 -30.5 0 0 -30.5z"/>
  <path d="M1676 1582.5 l0 -30.5 30.5 0 30.5 0 0 30.5 0 30.5 -30.5 0 -30.5 0 0 -30.5z"/>
  <path d="M249 1520.5 l0 -30.5 30.5 0 30.5 0 0 30.5 0 30.5 -30.5 0 -30.5 0 0 -30.5z"/>
  <path d="M373 1520.5 l0 -30.5 30.5 0 30.5 0 0 30.5 0 30.5 -30.5 0 -30.5 0 0 -30.5z"/>
  <path d="M435 1520.5 l0 -30.5 30.5 0 30.5 0 0 30.5 0 30.5 -30.5 0 -30.5 0 0 -30.5z"/>
  <path d="M497 1520.5 l0 -30.5 30.5 0 30.5 0 0 30.5 0 30.5 -30.5 0 -30.5 0 0 -30.5z"/>
  <path d="M621 1520.5 l0 -30.5 30.5 0 30.5 0 0 30.5 0 30.5 -30.5 0 -30.5 0 0 -30.5z"/>
  <path d="M807 1520.5 l0 -30.5 30.5 0 30.5 0 0 30.5 0 30.5 -30.5 0 -30.5 0 0 -30.5z"/>
  <path d="M869 1520.5 l0 -30.5 30.5 0 30.5 0 0 30.5 0 30.5 -30.5 0 -30.5 0 0 -30.5z"/>
  <path d="M993 1520.5 l0 -30.5 31 0 31 0 0 30.5 0 30.5 -31 0 -31 0 0 -30.5z"/>
  <path d="M1180 1520.5 l0 -30.5 30.5 0 30.5 0 0 30.5 0 30.5 -30.5 0 -30.5 0 0 -30.5z"/>
  <path d="M1242 1520.5 l0 -30.5 30.5 0 30.5 0 0 30.5 0 30.5 -30.5 0 -30.5 0 0 -30.5z"/>
  <path d="M1304 1520.5 l0 -30.5 30.5 0 30.5 0 0 30.5 0 30.5 -30.5 0 -30.5 0 0 -30.5z"/>
  <path d="M1366 1520.5 l0 -30.5 30.5 0 30.5 0 0 30.5 0 30.5 -30.5 0 -30.5 0 0 -30.5z"/>
  <path d="M1428 1520.5 l0 -30.5 30.5 0 30.5 0 0 30.5 0 30.5 -30.5 0 -30.5 0 0 -30.5z"/>
  <path d="M1490 1520.5 l0 -30.5 30.5 0 30.5 0 0 30.5 0 30.5 -30.5 0 -30.5 0 0 -30.5z"/>
  <path d="M1552 1520.5 l0 -30.5 30.5 0 30.5 0 0 30.5 0 30.5 -30.5 0 -30.5 0 0 -30.5z"/>
  <path d="M1676 1520.5 l0 -30.5 30.5 0 30.5 0 0 30.5 0 30.5 -30.5 0 -30.5 0 0 -30.5z"/>
  <path d="M249 1458.5 l0 -30.5 30.5 0 30.5 0 0 30.5 0 30.5 -30.5 0 -30.5 0 0 -30.5z"/>
  <path d="M621 1458.5 l0 -30.5 30.5 0 30.5 0 0 30.5 0 30.5 -30.5 0 -30.5 0 0 -30.5z"/>
  <path d="M807 1458.5 l0 -30.5 30.5 0 30.5 0 0 30.5 0 30.5 -30.5 0 -30.5 0 0 -30.5z"/>
  <path d="M931 1458.5 l0 -30.5 30.5 0 30.5 0 0 30.5 0 30.5 -30.5 0 -30.5 0 0 -30.5z"/>
  <path d="M993 1458.5 l0 -30.5 31 0 31 0 0 30.5 0 30.5 -31 0 -31 0 0 -30.5z"/>
  <path d="M1180 1458.5 l0 -30.5 30.5 0 30.5 0 0 30.5 0 30.5 -30.5 0 -30.5 0 0 -30.5z"/>
  <path d="M1242 1458.5 l0 -30.5 30.5 0 30.5 0 0 30.5 0 30.5 -30.5 0 -30.5 0 0 -30.5z"/>
  <path d="M1490 1458.5 l0 -30.5 30.5 0 30.5 0 0 30.5 0 30.5 -30.5 0 -30.5 0 0 -30.5z"/>
  <path d="M249 1396.5 l0 -30.5 30.5 0 30.5 0 0 30.5 0 30.5 -30.5 0 -30.5 0 0 -30.5z"/>
  <path d="M311 1396.5 l0 -30.5 30.5 0 30.5 0 0 30.5 0 30.5 -30.5 0 -30.5 0 0 -30.5z"/>
  <path d="M373 1396.5 l0 -30.5 30.5 0 30.5 0 0 30.5 0 30.5 -30.5 0 -30.5 0 0 -30.5z"/>
  <path d="M435 1396.5 l0 -30.5 30.5 0 30.5 0 0 30.5 0 30.5 -30.5 0 -30.5 0 0 -30.5z"/>
  <path d="M497 1396.5 l0 -30.5 30.5 0 30.5 0 0 30.5 0 30.5 -30.5 0 -30.5 0 0 -30.5z"/>
  <path d="M559 1396.5 l0 -30.5 30.5 0 30.5 0 0 30.5 0 30.5 -30.5 0 -30.5 0 0 -30.5z"/>
  <path d="M621 1396.5 l0 -30.5 30.5 0 30.5 0 0 30.5 0 30.5 -30.5 0 -30.5 0 0 -30.5z"/>
  <path d="M745 1396.5 l0 -30.5 30.5 0 30.5 0 0 30.5 0 30.5 -30.5 0 -30.5 0 0 -30.5z"/>
  <path d="M993 1396.5 l0 -30.5 31 0 31 0 0 30.5 0 30.5 -31 0 -31 0 0 -30.5z"/>
  <path d="M1118 1396.5 l0 -30.5 30.5 0 30.5 0 0 30.5 0 30.5 -30.5 0 -30.5 0 0 -30.5z"/>
  <path d="M1242 1396.5 l0 -30.5 30.5 0 30.5 0 0 30.5 0 30.5 -30.5 0 -30.5 0 0 -30.5z"/>
  <path d="M1366 1396.5 l0 -30.5 30.5 0 30.5 0 0 30.5 0 30.5 -30.5 0 -30.5 0 0 -30.5z"/>
  <path d="M1490 1396.5 l0 -30.5 30.5 0 30.5 0 0 30.5 0 30.5 -30.5 0 -30.5 0 0 -30.5z"/>
  <path d="M1552 1396.5 l0 -30.5 30.5 0 30.5 0 0 30.5 0 30.5 -30.5 0 -30.5 0 0 -30.5z"/>
  <path d="M1738 1396.5 l0 -30.5 30.5 0 30.5 0 0 30.5 0 30.5 -30.5 0 -30.5 0 0 -30.5z"/>
  <path d="M745 1334.5 l0 -30.5 30.5 0 30.5 0 0 30.5 0 30.5 -30.5 0 -30.5 0 0 -30.5z"/>
  <path d="M869 1334.5 l0 -30.5 30.5 0 30.5 0 0 30.5 0 30.5 -30.5 0 -30.5 0 0 -30.5z"/>
  <path d="M993 1334.5 l0 -30.5 31 0 31 0 0 30.5 0 30.5 -31 0 -31 0 0 -30.5z"/>
  <path d="M1118 1334.5 l0 -30.5 30.5 0 30.5 0 0 30.5 0 30.5 -30.5 0 -30.5 0 0 -30.5z"/>
  <path d="M1242 1334.5 l0 -30.5 30.5 0 30.5 0 0 30.5 0 30.5 -30.5 0 -30.5 0 0 -30.5z"/>
  <path d="M1490 1334.5 l0 -30.5 30.5 0 30.5 0 0 30.5 0 30.5 -30.5 0 -30.5 0 0 -30.5z"/>
  <path d="M1614 1334.5 l0 -30.5 30.5 0 30.5 0 0 30.5 0 30.5 -30.5 0 -30.5 0 0 -30.5z"/>
  <path d="M1738 1334.5 l0 -30.5 30.5 0 30.5 0 0 30.5 0 30.5 -30.5 0 -30.5 0 0 -30.5z"/>
  <path d="M559 1272.5 l0 -30.5 30.5 0 30.5 0 0 30.5 0 30.5 -30.5 0 -30.5 0 0 -30.5z"/>
  <path d="M621 1272.5 l0 -30.5 30.5 0 30.5 0 0 30.5 0 30.5 -30.5 0 -30.5 0 0 -30.5z"/>
  <path d="M745 1272.5 l0 -30.5 30.5 0 30.5 0 0 30.5 0 30.5 -30.5 0 -30.5 0 0 -30.5z"/>
  <path d="M807 1272.5 l0 -30.5 30.5 0 30.5 0 0 30.5 0 30.5 -30.5 0 -30.5 0 0 -30.5z"/>
  <path d="M931 1272.5 l0 -30.5 30.5 0 30.5 0 0 30.5 0 30.5 -30.5 0 -30.5 0 0 -30.5z"/>
  <path d="M993 1272.5 l0 -30.5 31 0 31 0 0 30.5 0 30.5 -31 0 -31 0 0 -30.5z"/>
  <path d="M1242 1272.5 l0 -30.5 30.5 0 30.5 0 0 30.5 0 30.5 -30.5 0 -30.5 0 0 -30.5z"/>
  <path d="M1304 1272.5 l0 -30.5 30.5 0 30.5 0 0 30.5 0 30.5 -30.5 0 -30.5 0 0 -30.5z"/>
  <path d="M1366 1272.5 l0 -30.5 30.5 0 30.5 0 0 30.5 0 30.5 -30.5 0 -30.5 0 0 -30.5z"/>
  <path d="M1428 1272.5 l0 -30.5 30.5 0 30.5 0 0 30.5 0 30.5 -30.5 0 -30.5 0 0 -30.5z"/>
  <path d="M1490 1272.5 l0 -30.5 30.5 0 30.5 0 0 30.5 0 30.5 -30.5 0 -30.5 0 0 -30.5z"/>
  <path d="M1676 1272.5 l0 -30.5 30.5 0 30.5 0 0 30.5 0 30.5 -30.5 0 -30.5 0 0 -30.5z"/>
  <path d="M249 1210.5 l0 -30.5 30.5 0 30.5 0 0 30.5 0 30.5 -30.5 0 -30.5 0 0 -30.5z"/>
  <path d="M311 1210.5 l0 -30.5 30.5 0 30.5 0 0 30.5 0 30.5 -30.5 0 -30.5 0 0 -30.5z"/>
  <path d="M435 1210.5 l0 -30.5 30.5 0 30.5 0 0 30.5 0 30.5 -30.5 0 -30.5 0 0 -30.5z"/>
  <path d="M497 1210.5 l0 -30.5 30.5 0 30.5 0 0 30.5 0 30.5 -30.5 0 -30.5 0 0 -30.5z"/>
  <path d="M745 1210.5 l0 -30.5 30.5 0 30.5 0 0 30.5 0 30.5 -30.5 0 -30.5 0 0 -30.5z"/>
  <path d="M807 1210.5 l0 -30.5 30.5 0 30.5 0 0 30.5 0 30.5 -30.5 0 -30.5 0 0 -30.5z"/>
  <path d="M869 1210.5 l0 -30.5 30.5 0 30.5 0 0 30.5 0 30.5 -30.5 0 -30.5 0 0 -30.5z"/>
  <path d="M1118 1210.5 l0 -30.5 30.5 0 30.5 0 0 30.5 0 30.5 -30.5 0 -30.5 0 0 -30.5z"/>
  <path d="M1304 1210.5 l0 -30.5 30.5 0 30.5 0 0 30.5 0 30.5 -30.5 0 -30.5 0 0 -30.5z"/>
  <path d="M1366 1210.5 l0 -30.5 30.5 0 30.5 0 0 30.5 0 30.5 -30.5 0 -30.5 0 0 -30.5z"/>
  <path d="M1490 1210.5 l0 -30.5 30.5 0 30.5 0 0 30.5 0 30.5 -30.5 0 -30.5 0 0 -30.5z"/>
  <path d="M435 1148.5 l0 -30.5 30.5 0 30.5 0 0 30.5 0 30.5 -30.5 0 -30.5 0 0 -30.5z"/>
  <path d="M497 1148.5 l0 -30.5 30.5 0 30.5 0 0 30.5 0 30.5 -30.5 0 -30.5 0 0 -30.5z"/>
  <path d="M559 1148.5 l0 -30.5 30.5 0 30.5 0 0 30.5 0 30.5 -30.5 0 -30.5 0 0 -30.5z"/>
  <path d="M621 1148.5 l0 -30.5 30.5 0 30.5 0 0 30.5 0 30.5 -30.5 0 -30.5 0 0 -30.5z"/>
  <path d="M683 1148.5 l0 -30.5 30.5 0 30.5 0 0 30.5 0 30.5 -30.5 0 -30.5 0 0 -30.5z"/>
  <path d="M931 1148.5 l0 -30.5 30.5 0 30.5 0 0 30.5 0 30.5 -30.5 0 -30.5 0 0 -30.5z"/>
  <path d="M1180 1148.5 l0 -30.5 30.5 0 30.5 0 0 30.5 0 30.5 -30.5 0 -30.5 0 0 -30.5z"/>
  <path d="M1366 1148.5 l0 -30.5 30.5 0 30.5 0 0 30.5 0 30.5 -30.5 0 -30.5 0 0 -30.5z"/>
  <path d="M1428 1148.5 l0 -30.5 30.5 0 30.5 0 0 30.5 0 30.5 -30.5 0 -30.5 0 0 -30.5z"/>
  <path d="M1552 1148.5 l0 -30.5 30.5 0 30.5 0 0 30.5 0 30.5 -30.5 0 -30.5 0 0 -30.5z"/>
  <path d="M1614 1148.5 l0 -30.5 30.5 0 30.5 0 0 30.5 0 30.5 -30.5 0 -30.5 0 0 -30.5z"/>
  <path d="M1738 1148.5 l0 -30.5 30.5 0 30.5 0 0 30.5 0 30.5 -30.5 0 -30.5 0 0 -30.5z"/>
  <path d="M435 1086.5 l0 -30.5 30.5 0 30.5 0 0 30.5 0 30.5 -30.5 0 -30.5 0 0 -30.5z"/>
  <path d="M745 1086.5 l0 -30.5 30.5 0 30.5 0 0 30.5 0 30.5 -30.5 0 -30.5 0 0 -30.5z"/>
  <path d="M807 1086.5 l0 -30.5 30.5 0 30.5 0 0 30.5 0 30.5 -30.5 0 -30.5 0 0 -30.5z"/>
  <path d="M1056 1086.5 l0 -30.5 30.5 0 30.5 0 0 30.5 0 30.5 -30.5 0 -30.5 0 0 -30.5z"/>
  <path d="M1180 1086.5 l0 -30.5 30.5 0 30.5 0 0 30.5 0 30.5 -30.5 0 -30.5 0 0 -30.5z"/>
  <path d="M1242 1086.5 l0 -30.5 30.5 0 30.5 0 0 30.5 0 30.5 -30.5 0 -30.5 0 0 -30.5z"/>
  <path d="M1304 1086.5 l0 -30.5 30.5 0 30.5 0 0 30.5 0 30.5 -30.5 0 -30.5 0 0 -30.5z"/>
  <path d="M1366 1086.5 l0 -30.5 30.5 0 30.5 0 0 30.5 0 30.5 -30.5 0 -30.5 0 0 -30.5z"/>
  <path d="M1428 1086.5 l0 -30.5 30.5 0 30.5 0 0 30.5 0 30.5 -30.5 0 -30.5 0 0 -30.5z"/>
  <path d="M1676 1086.5 l0 -30.5 30.5 0 30.5 0 0 30.5 0 30.5 -30.5 0 -30.5 0 0 -30.5z"/>
  <path d="M1738 1086.5 l0 -30.5 30.5 0 30.5 0 0 30.5 0 30.5 -30.5 0 -30.5 0 0 -30.5z"/>
  <path d="M249 1024 l0 -31 30.5 0 30.5 0 0 31 0 31 -30.5 0 -30.5 0 0 -31z"/>
  <path d="M311 1024 l0 -31 30.5 0 30.5 0 0 31 0 31 -30.5 0 -30.5 0 0 -31z"/>
  <path d="M435 1024 l0 -31 30.5 0 30.5 0 0 31 0 31 -30.5 0 -30.5 0 0 -31z"/>
  <path d="M621 1024 l0 -31 30.5 0 30.5 0 0 31 0 31 -30.5 0 -30.5 0 0 -31z"/>
  <path d="M745 1024 l0 -31 30.5 0 30.5 0 0 31 0 31 -30.5 0 -30.5 0 0 -31z"/>
  <path d="M869 1024 l0 -31 30.5 0 30.5 0 0 31 0 31 -30.5 0 -30.5 0 0 -31z"/>
  <path d="M931 1024 l0 -31 30.5 0 30.5 0 0 31 0 31 -30.5 0 -30.5 0 0 -31z"/>
  <path d="M1180 1024 l0 -31 30.5 0 30.5 0 0 31 0 31 -30.5 0 -30.5 0 0 -31z"/>
  <path d="M1366 1024 l0 -31 30.5 0 30.5 0 0 31 0 31 -30.5 0 -30.5 0 0 -31z"/>
  <path d="M1428 1024 l0 -31 30.5 0 30.5 0 0 31 0 31 -30.5 0 -30.5 0 0 -31z"/>
  <path d="M1738 1024 l0 -31 30.5 0 30.5 0 0 31 0 31 -30.5 0 -30.5 0 0 -31z"/>
  <path d="M311 961.5 l0 -30.5 30.5 0 30.5 0 0 30.5 0 30.5 -30.5 0 -30.5 0 0 -30.5z"/>
  <path d="M435 961.5 l0 -30.5 30.5 0 30.5 0 0 30.5 0 30.5 -30.5 0 -30.5 0 0 -30.5z"/>
  <path d="M497 961.5 l0 -30.5 30.5 0 30.5 0 0 30.5 0 30.5 -30.5 0 -30.5 0 0 -30.5z"/>
  <path d="M683 961.5 l0 -30.5 30.5 0 30.5 0 0 30.5 0 30.5 -30.5 0 -30.5 0 0 -30.5z"/>
  <path d="M807 961.5 l0 -30.5 30.5 0 30.5 0 0 30.5 0 30.5 -30.5 0 -30.5 0 0 -30.5z"/>
  <path d="M869 961.5 l0 -30.5 30.5 0 30.5 0 0 30.5 0 30.5 -30.5 0 -30.5 0 0 -30.5z"/>
  <path d="M931 961.5 l0 -30.5 30.5 0 30.5 0 0 30.5 0 30.5 -30.5 0 -30.5 0 0 -30.5z"/>
  <path d="M1366 961.5 l0 -30.5 30.5 0 30.5 0 0 30.5 0 30.5 -30.5 0 -30.5 0 0 -30.5z"/>
  <path d="M1490 961.5 l0 -30.5 30.5 0 30.5 0 0 30.5 0 30.5 -30.5 0 -30.5 0 0 -30.5z"/>
  <path d="M1552 961.5 l0 -30.5 30.5 0 30.5 0 0 30.5 0 30.5 -30.5 0 -30.5 0 0 -30.5z"/>
  <path d="M249 899.5 l0 -30.5 30.5 0 30.5 0 0 30.5 0 30.5 -30.5 0 -30.5 0 0 -30.5z"/>
  <path d="M373 899.5 l0 -30.5 30.5 0 30.5 0 0 30.5 0 30.5 -30.5 0 -30.5 0 0 -30.5z"/>
  <path d="M435 899.5 l0 -30.5 30.5 0 30.5 0 0 30.5 0 30.5 -30.5 0 -30.5 0 0 -30.5z"/>
  <path d="M621 899.5 l0 -30.5 30.5 0 30.5 0 0 30.5 0 30.5 -30.5 0 -30.5 0 0 -30.5z"/>
  <path d="M807 899.5 l0 -30.5 30.5 0 30.5 0 0 30.5 0 30.5 -30.5 0 -30.5 0 0 -30.5z"/>
  <path d="M931 899.5 l0 -30.5 30.5 0 30.5 0 0 30.5 0 30.5 -30.5 0 -30.5 0 0 -30.5z"/>
  <path d="M1180 899.5 l0 -30.5 30.5 0 30.5 0 0 30.5 0 30.5 -30.5 0 -30.5 0 0 -30.5z"/>
  <path d="M1242 899.5 l0 -30.5 30.5 0 30.5 0 0 30.5 0 30.5 -30.5 0 -30.5 0 0 -30.5z"/>
  <path d="M1428 899.5 l0 -30.5 30.5 0 30.5 0 0 30.5 0 30.5 -30.5 0 -30.5 0 0 -30.5z"/>
  <path d="M1490 899.5 l0 -30.5 30.5 0 30.5 0 0 30.5 0 30.5 -30.5 0 -30.5 0 0 -30.5z"/>
  <path d="M1552 899.5 l0 -30.5 30.5 0 30.5 0 0 30.5 0 30.5 -30.5 0 -30.5 0 0 -30.5z"/>
  <path d="M1614 899.5 l0 -30.5 30.5 0 30.5 0 0 30.5 0 30.5 -30.5 0 -30.5 0 0 -30.5z"/>
  <path d="M1738 899.5 l0 -30.5 30.5 0 30.5 0 0 30.5 0 30.5 -30.5 0 -30.5 0 0 -30.5z"/>
  <path d="M249 837.5 l0 -30.5 30.5 0 30.5 0 0 30.5 0 30.5 -30.5 0 -30.5 0 0 -30.5z"/>
  <path d="M373 837.5 l0 -30.5 30.5 0 30.5 0 0 30.5 0 30.5 -30.5 0 -30.5 0 0 -30.5z"/>
  <path d="M435 837.5 l0 -30.5 30.5 0 30.5 0 0 30.5 0 30.5 -30.5 0 -30.5 0 0 -30.5z"/>
  <path d="M559 837.5 l0 -30.5 30.5 0 30.5 0 0 30.5 0 30.5 -30.5 0 -30.5 0 0 -30.5z"/>
  <path d="M807 837.5 l0 -30.5 30.5 0 30.5 0 0 30.5 0 30.5 -30.5 0 -30.5 0 0 -30.5z"/>
  <path d="M993 837.5 l0 -30.5 31 0 31 0 0 30.5 0 30.5 -31 0 -31 0 0 -30.5z"/>
  <path d="M1056 837.5 l0 -30.5 30.5 0 30.5 0 0 30.5 0 30.5 -30.5 0 -30.5 0 0 -30.5z"/>
  <path d="M1180 837.5 l0 -30.5 30.5 0 30.5 0 0 30.5 0 30.5 -30.5 0 -30.5 0 0 -30.5z"/>
  <path d="M1242 837.5 l0 -30.5 30.5 0 30.5 0 0 30.5 0 30.5 -30.5 0 -30.5 0 0 -30.5z"/>
  <path d="M1366 837.5 l0 -30.5 30.5 0 30.5 0 0 30.5 0 30.5 -30.5 0 -30.5 0 0 -30.5z"/>
  <path d="M1552 837.5 l0 -30.5 30.5 0 30.5 0 0 30.5 0 30.5 -30.5 0 -30.5 0 0 -30.5z"/>
  <path d="M1676 837.5 l0 -30.5 30.5 0 30.5 0 0 30.5 0 30.5 -30.5 0 -30.5 0 0 -30.5z"/>
  <path d="M1738 837.5 l0 -30.5 30.5 0 30.5 0 0 30.5 0 30.5 -30.5 0 -30.5 0 0 -30.5z"/>
  <path d="M249 775.5 l0 -30.5 30.5 0 30.5 0 0 30.5 0 30.5 -30.5 0 -30.5 0 0 -30.5z"/>
  <path d="M373 775.5 l0 -30.5 30.5 0 30.5 0 0 30.5 0 30.5 -30.5 0 -30.5 0 0 -30.5z"/>
  <path d="M621 775.5 l0 -30.5 30.5 0 30.5 0 0 30.5 0 30.5 -30.5 0 -30.5 0 0 -30.5z"/>
  <path d="M683 775.5 l0 -30.5 30.5 0 30.5 0 0 30.5 0 30.5 -30.5 0 -30.5 0 0 -30.5z"/>
  <path d="M807 775.5 l0 -30.5 30.5 0 30.5 0 0 30.5 0 30.5 -30.5 0 -30.5 0 0 -30.5z"/>
  <path d="M869 775.5 l0 -30.5 30.5 0 30.5 0 0 30.5 0 30.5 -30.5 0 -30.5 0 0 -30.5z"/>
  <path d="M931 775.5 l0 -30.5 30.5 0 30.5 0 0 30.5 0 30.5 -30.5 0 -30.5 0 0 -30.5z"/>
  <path d="M993 775.5 l0 -30.5 31 0 31 0 0 30.5 0 30.5 -31 0 -31 0 0 -30.5z"/>
  <path d="M1118 775.5 l0 -30.5 30.5 0 30.5 0 0 30.5 0 30.5 -30.5 0 -30.5 0 0 -30.5z"/>
  <path d="M1180 775.5 l0 -30.5 30.5 0 30.5 0 0 30.5 0 30.5 -30.5 0 -30.5 0 0 -30.5z"/>
  <path d="M1242 775.5 l0 -30.5 30.5 0 30.5 0 0 30.5 0 30.5 -30.5 0 -30.5 0 0 -30.5z"/>
  <path d="M1428 775.5 l0 -30.5 30.5 0 30.5 0 0 30.5 0 30.5 -30.5 0 -30.5 0 0 -30.5z"/>
  <path d="M1614 775.5 l0 -30.5 30.5 0 30.5 0 0 30.5 0 30.5 -30.5 0 -30.5 0 0 -30.5z"/>
  <path d="M1738 775.5 l0 -30.5 30.5 0 30.5 0 0 30.5 0 30.5 -30.5 0 -30.5 0 0 -30.5z"/>
  <path d="M869 713.5 l0 -30.5 30.5 0 30.5 0 0 30.5 0 30.5 -30.5 0 -30.5 0 0 -30.5z"/>
  <path d="M993 713.5 l0 -30.5 31 0 31 0 0 30.5 0 30.5 -31 0 -31 0 0 -30.5z"/>
  <path d="M1118 713.5 l0 -30.5 30.5 0 30.5 0 0 30.5 0 30.5 -30.5 0 -30.5 0 0 -30.5z"/>
  <path d="M1242 713.5 l0 -30.5 30.5 0 30.5 0 0 30.5 0 30.5 -30.5 0 -30.5 0 0 -30.5z"/>
  <path d="M249 651.5 l0 -30.5 30.5 0 30.5 0 0 30.5 0 30.5 -30.5 0 -30.5 0 0 -30.5z"/>
  <path d="M311 651.5 l0 -30.5 30.5 0 30.5 0 0 30.5 0 30.5 -30.5 0 -30.5 0 0 -30.5z"/>
  <path d="M373 651.5 l0 -30.5 30.5 0 30.5 0 0 30.5 0 30.5 -30.5 0 -30.5 0 0 -30.5z"/>
  <path d="M435 651.5 l0 -30.5 30.5 0 30.5 0 0 30.5 0 30.5 -30.5 0 -30.5 0 0 -30.5z"/>
  <path d="M497 651.5 l0 -30.5 30.5 0 30.5 0 0 30.5 0 30.5 -30.5 0 -30.5 0 0 -30.5z"/>
  <path d="M559 651.5 l0 -30.5 30.5 0 30.5 0 0 30.5 0 30.5 -30.5 0 -30.5 0 0 -30.5z"/>
  <path d="M621 651.5 l0 -30.5 30.5 0 30.5 0 0 30.5 0 30.5 -30.5 0 -30.5 0 0 -30.5z"/>
  <path d="M745 651.5 l0 -30.5 30.5 0 30.5 0 0 30.5 0 30.5 -30.5 0 -30.5 0 0 -30.5z"/>
  <path d="M869 651.5 l0 -30.5 30.5 0 30.5 0 0 30.5 0 30.5 -30.5 0 -30.5 0 0 -30.5z"/>
  <path d="M993 651.5 l0 -30.5 31 0 31 0 0 30.5 0 30.5 -31 0 -31 0 0 -30.5z"/>
  <path d="M1118 651.5 l0 -30.5 30.5 0 30.5 0 0 30.5 0 30.5 -30.5 0 -30.5 0 0 -30.5z"/>
  <path d="M1242 651.5 l0 -30.5 30.5 0 30.5 0 0 30.5 0 30.5 -30.5 0 -30.5 0 0 -30.5z"/>
  <path d="M1366 651.5 l0 -30.5 30.5 0 30.5 0 0 30.5 0 30.5 -30.5 0 -30.5 0 0 -30.5z"/>
  <path d="M1428 651.5 l0 -30.5 30.5 0 30.5 0 0 30.5 0 30.5 -30.5 0 -30.5 0 0 -30.5z"/>
  <path d="M1490 651.5 l0 -30.5 30.5 0 30.5 0 0 30.5 0 30.5 -30.5 0 -30.5 0 0 -30.5z"/>
  <path d="M1552 651.5 l0 -30.5 30.5 0 30.5 0 0 30.5 0 30.5 -30.5 0 -30.5 0 0 -30.5z"/>
  <path d="M1614 651.5 l0 -30.5 30.5 0 30.5 0 0 30.5 0 30.5 -30.5 0 -30.5 0 0 -30.5z"/>
  <path d="M1676 651.5 l0 -30.5 30.5 0 30.5 0 0 30.5 0 30.5 -30.5 0 -30.5 0 0 -30.5z"/>
  <path d="M1738 651.5 l0 -30.5 30.5 0 30.5 0 0 30.5 0 30.5 -30.5 0 -30.5 0 0 -30.5z"/>
  <path d="M249 589.5 l0 -30.5 30.5 0 30.5 0 0 30.5 0 30.5 -30.5 0 -30.5 0 0 -30.5z"/>
  <path d="M621 589.5 l0 -30.5 30.5 0 30.5 0 0 30.5 0 30.5 -30.5 0 -30.5 0 0 -30.5z"/>
  <path d="M745 589.5 l0 -30.5 30.5 0 30.5 0 0 30.5 0 30.5 -30.5 0 -30.5 0 0 -30.5z"/>
  <path d="M869 589.5 l0 -30.5 30.5 0 30.5 0 0 30.5 0 30.5 -30.5 0 -30.5 0 0 -30.5z"/>
  <path d="M993 589.5 l0 -30.5 31 0 31 0 0 30.5 0 30.5 -31 0 -31 0 0 -30.5z"/>
  <path d="M1242 589.5 l0 -30.5 30.5 0 30.5 0 0 30.5 0 30.5 -30.5 0 -30.5 0 0 -30.5z"/>
  <path d="M1366 589.5 l0 -30.5 30.5 0 30.5 0 0 30.5 0 30.5 -30.5 0 -30.5 0 0 -30.5z"/>
  <path d="M1738 589.5 l0 -30.5 30.5 0 30.5 0 0 30.5 0 30.5 -30.5 0 -30.5 0 0 -30.5z"/>
  <path d="M249 527.5 l0 -30.5 30.5 0 30.5 0 0 30.5 0 30.5 -30.5 0 -30.5 0 0 -30.5z"/>
  <path d="M373 527.5 l0 -30.5 30.5 0 30.5 0 0 30.5 0 30.5 -30.5 0 -30.5 0 0 -30.5z"/>
  <path d="M435 527.5 l0 -30.5 30.5 0 30.5 0 0 30.5 0 30.5 -30.5 0 -30.5 0 0 -30.5z"/>
  <path d="M497 527.5 l0 -30.5 30.5 0 30.5 0 0 30.5 0 30.5 -30.5 0 -30.5 0 0 -30.5z"/>
  <path d="M621 527.5 l0 -30.5 30.5 0 30.5 0 0 30.5 0 30.5 -30.5 0 -30.5 0 0 -30.5z"/>
  <path d="M869 527.5 l0 -30.5 30.5 0 30.5 0 0 30.5 0 30.5 -30.5 0 -30.5 0 0 -30.5z"/>
  <path d="M1056 527.5 l0 -30.5 30.5 0 30.5 0 0 30.5 0 30.5 -30.5 0 -30.5 0 0 -30.5z"/>
  <path d="M1118 527.5 l0 -30.5 30.5 0 30.5 0 0 30.5 0 30.5 -30.5 0 -30.5 0 0 -30.5z"/>
  <path d="M1366 527.5 l0 -30.5 30.5 0 30.5 0 0 30.5 0 30.5 -30.5 0 -30.5 0 0 -30.5z"/>
  <path d="M1490 527.5 l0 -30.5 30.5 0 30.5 0 0 30.5 0 30.5 -30.5 0 -30.5 0 0 -30.5z"/>
  <path d="M1552 527.5 l0 -30.5 30.5 0 30.5 0 0 30.5 0 30.5 -30.5 0 -30.5 0 0 -30.5z"/>
  <path d="M1614 527.5 l0 -30.5 30.5 0 30.5 0 0 30.5 0 30.5 -30.5 0 -30.5 0 0 -30.5z"/>
  <path d="M1738 527.5 l0 -30.5 30.5 0 30.5 0 0 30.5 0 30.5 -30.5 0 -30.5 0 0 -30.5z"/>
  <path d="M249 465.5 l0 -30.5 30.5 0 30.5 0 0 30.5 0 30.5 -30.5 0 -30.5 0 0 -30.5z"/>
  <path d="M373 465.5 l0 -30.5 30.5 0 30.5 0 0 30.5 0 30.5 -30.5 0 -30.5 0 0 -30.5z"/>
  <path d="M435 465.5 l0 -30.5 30.5 0 30.5 0 0 30.5 0 30.5 -30.5 0 -30.5 0 0 -30.5z"/>
  <path d="M497 465.5 l0 -30.5 30.5 0 30.5 0 0 30.5 0 30.5 -30.5 0 -30.5 0 0 -30.5z"/>
  <path d="M621 465.5 l0 -30.5 30.5 0 30.5 0 0 30.5 0 30.5 -30.5 0 -30.5 0 0 -30.5z"/>
  <path d="M807 465.5 l0 -30.5 30.5 0 30.5 0 0 30.5 0 30.5 -30.5 0 -30.5 0 0 -30.5z"/>
  <path d="M869 465.5 l0 -30.5 30.5 0 30.5 0 0 30.5 0 30.5 -30.5 0 -30.5 0 0 -30.5z"/>
  <path d="M1056 465.5 l0 -30.5 30.5 0 30.5 0 0 30.5 0 30.5 -30.5 0 -30.5 0 0 -30.5z"/>
  <path d="M1118 465.5 l0 -30.5 30.5 0 30.5 0 0 30.5 0 30.5 -30.5 0 -30.5 0 0 -30.5z"/>
  <path d="M1366 465.5 l0 -30.5 30.5 0 30.5 0 0 30.5 0 30.5 -30.5 0 -30.5 0 0 -30.5z"/>
  <path d="M1490 465.5 l0 -30.5 30.5 0 30.5 0 0 30.5 0 30.5 -30.5 0 -30.5 0 0 -30.5z"/>
  <path d="M1552 465.5 l0 -30.5 30.5 0 30.5 0 0 30.5 0 30.5 -30.5 0 -30.5 0 0 -30.5z"/>
  <path d="M1614 465.5 l0 -30.5 30.5 0 30.5 0 0 30.5 0 30.5 -30.5 0 -30.5 0 0 -30.5z"/>
  <path d="M1738 465.5 l0 -30.5 30.5 0 30.5 0 0 30.5 0 30.5 -30.5 0 -30.5 0 0 -30.5z"/>
  <path d="M249 403.5 l0 -30.5 30.5 0 30.5 0 0 30.5 0 30.5 -30.5 0 -30.5 0 0 -30.5z"/>
  <path d="M373 403.5 l0 -30.5 30.5 0 30.5 0 0 30.5 0 30.5 -30.5 0 -30.5 0 0 -30.5z"/>
  <path d="M435 403.5 l0 -30.5 30.5 0 30.5 0 0 30.5 0 30.5 -30.5 0 -30.5 0 0 -30.5z"/>
  <path d="M497 403.5 l0 -30.5 30.5 0 30.5 0 0 30.5 0 30.5 -30.5 0 -30.5 0 0 -30.5z"/>
  <path d="M621 403.5 l0 -30.5 30.5 0 30.5 0 0 30.5 0 30.5 -30.5 0 -30.5 0 0 -30.5z"/>
  <path d="M745 403.5 l0 -30.5 30.5 0 30.5 0 0 30.5 0 30.5 -30.5 0 -30.5 0 0 -30.5z"/>
  <path d="M807 403.5 l0 -30.5 30.5 0 30.5 0 0 30.5 0 30.5 -30.5 0 -30.5 0 0 -30.5z"/>
  <path d="M993 403.5 l0 -30.5 31 0 31 0 0 30.5 0 30.5 -31 0 -31 0 0 -30.5z"/>
  <path d="M1056 403.5 l0 -30.5 30.5 0 30.5 0 0 30.5 0 30.5 -30.5 0 -30.5 0 0 -30.5z"/>
  <path d="M1180 403.5 l0 -30.5 30.5 0 30.5 0 0 30.5 0 30.5 -30.5 0 -30.5 0 0 -30.5z"/>
  <path d="M1366 403.5 l0 -30.5 30.5 0 30.5 0 0 30.5 0 30.5 -30.5 0 -30.5 0 0 -30.5z"/>
  <path d="M1490 403.5 l0 -30.5 30.5 0 30.5 0 0 30.5 0 30.5 -30.5 0 -30.5 0 0 -30.5z"/>
  <path d="M1552 403.5 l0 -30.5 30.5 0 30.5 0 0 30.5 0 30.5 -30.5 0 -30.5 0 0 -30.5z"/>
  <path d="M1614 403.5 l0 -30.5 30.5 0 30.5 0 0 30.5 0 30.5 -30.5 0 -30.5 0 0 -30.5z"/>
  <path d="M1738 403.5 l0 -30.5 30.5 0 30.5 0 0 30.5 0 30.5 -30.5 0 -30.5 0 0 -30.5z"/>
  <path d="M249 341.5 l0 -30.5 30.5 0 30.5 0 0 30.5 0 30.5 -30.5 0 -30.5 0 0 -30.5z"/>
  <path d="M621 341.5 l0 -30.5 30.5 0 30.5 0 0 30.5 0 30.5 -30.5 0 -30.5 0 0 -30.5z"/>
  <path d="M931 341.5 l0 -30.5 30.5 0 30.5 0 0 30.5 0 30.5 -30.5 0 -30.5 0 0 -30.5z"/>
  <path d="M1366 341.5 l0 -30.5 30.5 0 30.5 0 0 30.5 0 30.5 -30.5 0 -30.5 0 0 -30.5z"/>
  <path d="M1738 341.5 l0 -30.5 30.5 0 30.5 0 0 30.5 0 30.5 -30.5 0 -30.5 0 0 -30.5z"/>
  <path d="M249 279.5 l0 -30.5 30.5 0 30.5 0 0 30.5 0 30.5 -30.5 0 -30.5 0 0 -30.5z"/>
  <path d="M311 279.5 l0 -30.5 30.5 0 30.5 0 0 30.5 0 30.5 -30.5 0 -30.5 0 0 -30.5z"/>
  <path d="M373 279.5 l0 -30.5 30.5 0 30.5 0 0 30.5 0 30.5 -30.5 0 -30.5 0 0 -30.5z"/>
  <path d="M435 279.5 l0 -30.5 30.5 0 30.5 0 0 30.5 0 30.5 -30.5 0 -30.5 0 0 -30.5z"/>
  <path d="M497 279.5 l0 -30.5 30.5 0 30.5 0 0 30.5 0 30.5 -30.5 0 -30.5 0 0 -30.5z"/>
  <path d="M559 279.5 l0 -30.5 30.5 0 30.5 0 0 30.5 0 30.5 -30.5 0 -30.5 0 0 -30.5z"/>
  <path d="M621 279.5 l0 -30.5 30.5 0 30.5 0 0 30.5 0 30.5 -30.5 0 -30.5 0 0 -30.5z"/>
  <path d="M745 279.5 l0 -30.5 30.5 0 30.5 0 0 30.5 0 30.5 -30.5 0 -30.5 0 0 -30.5z"/>
  <path d="M807 279.5 l0 -30.5 30.5 0 30.5 0 0 30.5 0 30.5 -30.5 0 -30.5 0 0 -30.5z"/>
  <path d="M869 279.5 l0 -30.5 30.5 0 30.5 0 0 30.5 0 30.5 -30.5 0 -30.5 0 0 -30.5z"/>
  <path d="M1118 279.5 l0 -30.5 30.5 0 30.5 0 0 30.5 0 30.5 -30.5 0 -30.5 0 0 -30.5z"/>
  <path d="M1366 279.5 l0 -30.5 30.5 0 30.5 0 0 30.5 0 30.5 -30.5 0 -30.5 0 0 -30.5z"/>
  <path d="M1428 279.5 l0 -30.5 30.5 0 30.5 0 0 30.5 0 30.5 -30.5 0 -30.5 0 0 -30.5z"/>
  <path d="M1490 279.5 l0 -30.5 30.5 0 30.5 0 0 30.5 0 30.5 -30.5 0 -30.5 0 0 -30.5z"/>
  <path d="M1552 279.5 l0 -30.5 30.5 0 30.5 0 0 30.5 0 30.5 -30.5 0 -30.5 0 0 -30.5z"/>
  <path d="M1614 279.5 l0 -30.5 30.5 0 30.5 0 0 30.5 0 30.5 -30.5 0 -30.5 0 0 -30.5z"/>
  <path d="M1676 279.5 l0 -30.5 30.5 0 30.5 0 0 30.5 0 30.5 -30.5 0 -30.5 0 0 -30.5z"/>
  <path d="M1738 279.5 l0 -30.5 30.5 0 30.5 0 0 30.5 0 30.5 -30.5 0 -30.5 0 0 -30.5z"/>
 </g>
</svg>