<?xml version="1.0" encoding="utf-8"?>
<!DOCTYPE svg PUBLIC "-//W3C//DTD SVG 20010904//EN" "http://www.w3.org/TR/2001/REC-SVG-20010904/DTD/svg10.dtd">
<svg version="1.0" xmlns="http://www.w3.org/2000/svg" width="400px" height="400px" viewBox="0 0 400 400" preserveAspectRatio="xMidYMid meet">
 <g fill="#ffffff">
  <path d="M188.6 385.9 c-18.2 -1.9 -25.8 -10.1 -27.3 -29.8 l-0.6 -7.6 -19.7 -8.3 -19.8 -8.4 -5.4 4 c-13.7 10.4 -25.1 12.9 -34.7 7.7 -7.2 -3.9 -24 -21.4 -27.5 -28.8 -4.7 -9.6 -2.6 -18 7.9 -31.7 2.5 -3.2 4.5 -6.2 4.5 -6.6 0 -0.4 -3.7 -9.7 -8.1 -20.6 l-8.2 -19.8 -8.7 0 c-13.7 0 -19.2 -2.7 -23.4 -11.3 -3.4 -6.9 -4.8 -20.1 -3.5 -33.4 1.3 -14.5 3 -19.4 8.4 -24.1 5.4 -4.7 10.4 -6.2 21.3 -6.2 l7.9 0 3.8 -10.8 c2.1 -5.9 5.5 -14.7 7.6 -19.5 l3.8 -8.9 -5.3 -8.8 c-6 -10 -9.1 -19.5 -8.1 -24.8 1.3 -6.7 5.7 -13.6 14.4 -22.3 18.7 -18.7 28.4 -19.2 51.2 -2.5 l3.6 2.7 18.4 -7.2 c10.1 -4 18.7 -7.5 19.1 -7.8 0.4 -0.3 1.6 -4.8 2.7 -9.9 3.6 -16.3 7.3 -22.3 16.3 -26.2 5.9 -2.5 21.3 -4 31.3 -3 17.1 1.8 23.3 8.6 27 29.9 0.8 4.7 1.8 8.8 2.2 9.2 0.6 0.6 33.6 14.4 36.3 15.2 0.3 0.1 4.9 -2.1 10.1 -5 12.3 -6.8 21 -9.2 27.5 -7.5 6.2 1.7 12.4 6.1 21.2 15.2 16.5 17 17.2 27 3 45.8 l-5.5 7.3 6.9 17.7 c3.8 9.7 7.3 18.8 7.9 20.1 0.8 2 1.4 2.2 4.3 1.7 4.3 -0.8 16.9 1 20.9 3 8.5 4.3 12.4 10.8 13.6 22.7 0.9 8.7 -0.2 27.3 -2 33.9 -1.1 4.3 -5.5 9.1 -11.1 11.9 -4.5 2.3 -15.4 4.9 -20.8 4.9 l-3.5 0 -8.2 19.5 -8.1 19.6 4.9 5.7 c10.8 12.5 13.2 23.4 7.4 34.1 -4.2 7.6 -21.7 24.1 -30 28.2 -5.5 2.7 -7.2 3.1 -11 2.6 -6 -0.9 -11.3 -3.7 -19 -10.2 -3.5 -3 -6.8 -5.5 -7.2 -5.5 -0.4 0 -9.4 3.7 -20 8.2 l-19.2 8.1 -0.6 5.6 c-1.8 17.7 -7.9 27.3 -19.5 30.9 -5 1.5 -20.1 2 -29.4 1.1z m24.3 -25.1 c0.5 -1.3 1.4 -8.1 2 -15.2 0.6 -7.1 1.2 -13 1.4 -13.1 0.1 -0.1 14.8 -6.3 32.5 -13.9 27.7 -11.7 32.6 -13.5 34 -12.4 1 0.7 6.1 5 11.6 9.6 5.4 4.6 10.4 8.2 11.1 8 0.8 -0.2 5.5 -4.3 10.4 -9.1 10.7 -10.4 10.9 -8.6 -1.9 -23.2 l-8.7 -10 13.5 -32.5 c7.4 -17.9 13.6 -32.6 13.7 -32.8 0.1 -0.1 6 -0.7 13.1 -1.2 7.2 -0.5 13.7 -1.2 14.6 -1.5 2.1 -0.8 3 -7.9 2.6 -19.5 l-0.3 -8.5 -10.5 -0.6 c-15.3 -0.9 -22.4 -5.3 -26.6 -16.5 -0.9 -2.7 -5.7 -15 -10.6 -27.3 -4.8 -12.2 -8.8 -22.7 -8.8 -23.1 0 -0.4 3.3 -4.7 7.4 -9.6 4.1 -4.9 8.4 -10.6 9.6 -12.6 l2.1 -3.8 -8 -8 -7.9 -8.1 -3.9 1.6 c-2.1 0.9 -8.9 4.5 -15.1 8 -6.3 3.6 -11.7 6.5 -12 6.5 -0.4 0 -14.2 -5.5 -30.7 -12.3 l-29.9 -12.3 -1.8 -13.6 c-1 -7.5 -2.2 -14.8 -2.8 -16.3 l-1 -2.7 -11.5 0.4 c-8.6 0.2 -11.8 0.7 -12.4 1.7 -0.5 0.8 -1.9 6.2 -3.1 12 -1.2 5.8 -2.7 12.6 -3.3 14.9 l-1.2 4.4 -30.4 11.9 c-16.7 6.5 -30.8 11.9 -31.5 11.9 -0.6 0 -5.3 -3.4 -10.4 -7.5 -5.1 -4.1 -10.6 -8.1 -12.1 -9 -2.8 -1.4 -3.1 -1.3 -7.5 2.3 -6.1 5.1 -11.6 11.6 -11.6 13.9 0 2 3.2 7.8 10.7 19.9 l5.1 8.1 -6.4 15.3 c-3.6 8.4 -7.8 19.1 -9.4 23.6 -5.3 15.1 -8.5 19.5 -17 23.3 -3.4 1.6 -6.6 2.1 -13.2 2.1 l-8.7 0 -0.6 5.3 c-0.3 2.8 -0.5 9.3 -0.3 14.2 l0.3 9 11 0.7 c19.2 1.3 15.6 -2.7 31.1 34.7 7.7 18.8 13 32.9 12.6 33.5 -0.5 0.6 -3.6 4.5 -6.9 8.6 -3.3 4.1 -7.2 9.3 -8.7 11.4 l-2.6 3.9 6.9 7.6 c10.9 12.1 9.8 12 25.1 1.6 l12.9 -8.8 31.8 13.5 31.8 13.5 1.2 14.3 c0.8 9.6 1.6 14.6 2.5 15.1 0.7 0.5 6.8 0.9 13.6 0.9 11.8 0 12.3 -0.1 13.1 -2.2z"/>
  <path d="M111.3 286.3 l-6.3 -0.4 0 -15.7 c0 -23.6 3.4 -35.4 12.2 -42.5 3.1 -2.5 44.7 -22.2 45.3 -21.5 0.1 0.2 4.4 13 9.4 28.6 5 15.5 9.5 28.2 10 28.2 0.5 0 2.1 -2.9 3.5 -6.5 3.2 -8 3.4 -15 0.6 -20.5 -4.7 -9.2 -1.5 -15.7 8.2 -16.7 4.8 -0.5 5.7 -0.2 8.3 2 3.9 3.3 3.8 7.9 -0.3 17 l-3.1 6.7 3.2 8.5 c2.1 5.7 3.7 8.5 4.6 8.3 0.9 -0.2 4.6 -10.4 10.1 -27.6 4.8 -15 9 -27.5 9.3 -27.8 0.5 -0.6 18.1 7.3 35.2 15.8 18.9 9.4 19.8 11.2 22.6 46.6 0.6 8.4 1 15.5 0.7 15.8 -1.8 1.8 -146.5 3.2 -173.5 1.7z"/>
  <path d="M185.3 198.1 c-12.5 -4.3 -23.8 -19 -31.4 -40.9 -3.1 -9.2 -3.2 -9.5 -1.9 -16.5 0.7 -4 1.3 -11.5 1.4 -16.7 0.1 -8.5 0.4 -10.2 3.3 -16.3 6.7 -14.1 21.4 -24.7 35.5 -25.5 12.1 -0.7 21.1 3.1 34.5 14.6 7.3 6.3 8.5 9.3 8.2 20.5 -0.2 6.2 0.4 11.7 1.6 16.9 1.7 7.4 1.8 8.1 0.1 16.5 -2 10.2 -5.4 18.2 -12.4 28.5 -12.1 17.9 -24.5 23.9 -38.9 18.9z"/>
 </g>
</svg>