<svg version="1.0" xmlns="http://www.w3.org/2000/svg" width="549px" height="534px" viewBox="0 0 5490 5340" preserveAspectRatio="xMidYMid meet">
<g id="layer101" fill="#231815" stroke="none">
 <path d="M333 4989 c-22 -11 -54 -39 -70 -61 l-28 -41 -3 -2221 -2 -2221 22 -45 c13 -24 40 -58 61 -74 l39 -31 596 -8 c810 -11 3909 -2 3943 11 40 16 98 70 117 111 16 34 17 185 17 2241 l0 2205 -22 40 c-28 53 -72 93 -114 105 -22 6 -840 10 -2274 10 l-2240 0 -42 -21z m4372 -2339 l0 -2045 -327 -3 -328 -2 -2 1027 -3 1028 -1412 3 -1413 2 -2 -1027 -3 -1028 -332 -3 -333 -2 0 2050 0 2050 2078 -2 2077 -3 0 -2045z m-977 -1172 l-3 -873 -1092 -3 -1093 -2 0 875 0 875 1095 0 1095 0 -2 -872z"/>
 <path d="M2910 1600 l0 -430 230 0 230 0 -2 428 -3 427 -227 3 -228 2 0 -430z"/>
 </g>

</svg>