<svg version="1.0" xmlns="http://www.w3.org/2000/svg" width="441px" height="471px" viewBox="0 0 4410 4710" preserveAspectRatio="xMidYMid meet">
<g id="layer101" fill="#ffffff" stroke="none">
 <path d="M1533 3569 c-35 -10 -226 -160 -256 -201 -29 -39 -33 -114 -9 -160 11 -20 136 -177 278 -347 l259 -311 49 53 c104 109 296 348 296 367 0 25 -448 556 -494 584 -30 19 -85 26 -123 15z"/>
 <path d="M2714 3488 c-53 -36 -190 -195 -872 -1010 -304 -364 -423 -500 -445 -508 -21 -7 -49 -7 -95 1 -188 33 -398 -42 -536 -192 -113 -122 -161 -250 -159 -424 2 -197 -10 -201 207 60 104 124 203 237 218 251 36 29 50 30 208 3 143 -24 182 -38 203 -71 22 -34 117 -294 117 -321 0 -34 -23 -65 -207 -283 -94 -110 -174 -210 -177 -222 -5 -16 -3 -24 10 -29 23 -9 232 42 320 79 239 97 388 420 314 678 -32 111 -35 146 -16 175 9 14 96 119 193 233 570 668 1025 1216 1060 1277 79 139 -60 334 -238 335 -48 0 -65 -5 -105 -32z m160 -102 c49 -29 86 -89 86 -141 0 -31 -8 -45 -43 -80 -67 -68 -135 -72 -202 -14 -81 72 -62 191 40 247 32 18 75 14 119 -12z"/>
 <path d="M2420 2299 c-196 -234 -194 -232 -179 -260 7 -13 65 -86 130 -161 181 -210 276 -334 284 -367 16 -72 -8 -104 -218 -300 -38 -34 -72 -74 -78 -88 -17 -44 -10 -98 16 -137 52 -76 219 -267 246 -281 37 -20 102 -19 142 1 37 19 43 24 417 338 324 272 388 331 434 401 49 75 62 116 106 336 37 185 40 206 29 262 -13 74 -31 111 -64 133 -51 34 -84 15 -329 -183 -79 -64 -139 -106 -164 -112 -45 -13 -89 -2 -130 29 -15 12 -126 139 -247 283 -133 158 -228 263 -240 265 -15 2 -55 -39 -155 -159z"/>
 </g>

</svg>